<svg viewBox="0 0 210 83" fill="none" xmlns="http://www.w3.org/2000/svg">
    <path d="M23.2052 36.8179H23.3333L27.353 45.4781H18.8813L23.2052 36.8179ZM16.4951 27.4213L0 55.5629H13.8687L15.8705 51.545H30.1075L32.0293 55.5629H46.3464L29.9954 27.4213H16.4951ZM64.8913 34.6408H69.2793C79.2565 34.6408 80.1373 39.5712 80.1373 41.3321C80.1373 43.9733 78.8721 48.3434 70.2883 48.3434H64.8913V34.6408ZM51.0867 27.4213V55.5629H71.0409C86.6552 55.5629 93.9419 50.0723 93.9419 41.4441C93.9419 34.3687 88.6571 27.4213 73.7314 27.4213H51.0867ZM101.917 55.5629H115.722V27.4213H101.917V55.5629ZM186.907 36.8179H187.035L191.039 45.4781H182.567L186.907 36.8179ZM180.197 27.3893L163.686 55.5629H177.554L179.556 51.545H193.777L195.651 55.5629H209.968L193.681 27.4213L180.197 27.3893ZM124.386 36.0495C124.386 41.7322 132.489 42.9488 139.552 44.2134C147.287 45.5901 149.16 45.9903 149.16 47.415C149.16 49.496 145.717 49.9762 143.459 49.9762C140.929 50.0082 137.934 49.6241 136.925 48.0233C136.597 47.4598 136.425 46.8186 136.429 46.1664H122.624C122.752 55.1467 137.245 56.2833 142.322 56.2833C152.299 56.2833 163.029 53.9301 163.029 46.6786C163.029 41.5081 156.751 39.6673 150.41 38.5627C144.068 37.4582 137.598 36.9619 137.438 35.025C137.438 33.4242 140.496 33.1201 142.386 33.1201C143.782 33.0875 145.17 33.3323 146.47 33.8404C147.591 34.3047 148.344 35.025 148.071 36.0815H161.123C160.771 29.0862 152.139 26.749 142.53 26.749C133.306 26.749 124.466 29.5504 124.466 36.0495" fill="#0077E4"/>
</svg>
