<svg width="100" height="40" viewBox="0 0 100 40" fill="none" xmlns="http://www.w3.org/2000/svg">
<path d="M0 6.44503C0 6.52217 0 6.59932 0 6.67646C33.0549 0.893167 66.8459 0.893167 99.9009 6.67646C99.9009 6.59932 99.9009 6.52217 99.9009 6.44503C67.1399 -2.12914 32.761 -2.12914 0 6.44503" fill="#0077E4"/>
<path d="M11.0501 17.7436H11.1111L13.0252 21.9171H8.99108L11.0501 17.7436ZM7.8548 13.2151L0 26.7773H6.60413L7.55738 24.841H14.3369L15.252 26.7773H22.0697L14.2835 13.2151H7.8548ZM30.9006 16.6944H32.9902C37.7412 16.6944 38.1606 19.0705 38.1606 19.9191C38.1606 21.192 37.5581 23.2981 33.4706 23.2981H30.9006V16.6944ZM24.327 13.2151V26.7773H33.829C41.2644 26.7773 44.7342 24.1312 44.7342 19.9731C44.7342 16.5632 42.2176 13.2151 35.1102 13.2151H24.327ZM48.532 26.7773H55.1056V13.2151H48.532V26.7773ZM89.0033 17.7436H89.0643L90.9708 21.9171H86.9366L89.0033 17.7436ZM85.808 13.1997L77.9455 26.7773H84.5497L85.5029 24.841H92.2748L93.1671 26.7773H99.9847L92.2291 13.2151L85.808 13.1997ZM59.2313 17.3733C59.2313 20.1119 63.0901 20.6982 66.4531 21.3077C70.1365 21.9712 71.0287 22.164 71.0287 22.8506C71.0287 23.8535 69.3892 24.0849 68.3139 24.0849C67.109 24.1004 65.6829 23.9152 65.2025 23.1438C65.046 22.8722 64.9644 22.5632 64.9661 22.2489H58.3924C58.4534 26.5767 65.355 27.1245 67.7724 27.1245C72.5234 27.1245 77.6329 25.9904 77.6329 22.4957C77.6329 20.0039 74.6435 19.1168 71.6236 18.5845C68.6037 18.0522 65.5228 17.813 65.4465 16.8795C65.4465 16.1081 66.9031 15.9615 67.8029 15.9615C68.4675 15.9458 69.1285 16.0638 69.7476 16.3087C70.2814 16.5324 70.6398 16.8795 70.5102 17.3887H76.7254C76.5576 14.0174 72.4472 12.8911 67.8716 12.8911C63.479 12.8911 59.2694 14.2412 59.2694 17.3733" fill="#0077E4"/>
<path d="M78.1745 37.161H79.0668C79.0668 37.5159 79.4938 37.6471 79.9819 37.6471C80.3022 37.6471 80.7979 37.5853 80.7979 37.323C80.7979 37.0607 80.1649 36.9913 79.5548 36.8833C78.9447 36.7753 78.3118 36.6364 78.3118 36.1119C78.3118 35.5873 79.1201 35.3404 79.837 35.3404C80.714 35.3404 81.5071 35.5796 81.5071 36.189H80.6225C80.6225 35.8727 80.2412 35.7878 79.8065 35.7878C79.5091 35.7878 79.1659 35.865 79.1659 36.0887C79.1659 36.3124 79.3718 36.3124 80.4089 36.4899C80.714 36.4899 81.652 36.6519 81.652 37.2613C81.652 37.8708 81.0495 38.1022 79.9209 38.1022C78.9981 38.1022 78.1288 37.8168 78.144 37.1688L78.1745 37.161ZM77.5949 36.2584H76.7027C76.6417 36.0039 76.2451 35.8033 75.7876 35.8033C74.9563 35.8033 74.6437 36.243 74.6437 36.7059C74.6437 37.1688 74.9563 37.5776 75.7876 37.5776C76.3519 37.5776 76.6646 37.3385 76.7408 36.9913H77.6331C77.5339 37.6471 76.8171 38.0636 75.7876 38.0636C74.4911 38.0636 73.7285 37.4542 73.7285 36.7059C73.7285 35.9576 74.4911 35.3173 75.7876 35.3173C76.7103 35.3173 77.4882 35.6567 77.5949 36.2584ZM69.8011 38.0328V35.4098H73.0727V35.8959H70.7849V36.459H72.9049V36.9065H70.762V37.5468H73.1185V38.0328H69.8011ZM67.0176 38.0328V35.8959H65.767V35.4098H69.1911V35.8959H67.9404V38.0328H67.0176ZM64.3257 35.4098H65.195V38.0328H64.3257V35.4098ZM59.8721 38.0328V35.4098H60.8024V36.4127H62.5335V35.4098H63.4639V38.0328H62.5335V36.9065H60.8024V38.0328H59.8721ZM84.649 37.0299L84.0999 36.0656L83.5356 37.0299H84.649ZM86.1742 38.0405H85.1828L84.8549 37.4542H83.2306L82.8874 38.0405H81.9189L83.5737 35.4176H84.5499L86.1742 38.0405Z" fill="#0077E4"/>
<path d="M53.7864 39.6992C53.7864 39.6992 53.5805 40.0541 54.0381 39.9924C55.2354 39.8535 55.8683 39.7224 56.9207 39.5141C57.0122 39.5141 57.0961 39.5141 57.0961 39.4215C57.0647 39.1398 57.052 38.8563 57.058 38.5729C57.0628 38.4113 57.0963 38.2518 57.1571 38.1023C57.3707 37.6471 57.0427 37.5237 56.5699 37.5006C56.0971 37.4774 55.9675 37.5006 55.7006 37.5006H54.8083C54.4728 37.5006 54.2669 37.678 54.1677 38.1332C54.1217 38.6646 53.993 39.1853 53.7864 39.6761V39.6992ZM54.1296 33.9673C53.9771 33.9673 53.9237 34.0136 53.9237 34.0984C53.9183 34.3823 53.9361 34.6662 53.9771 34.947C54.0991 35.3019 54.244 35.9885 54.3508 36.3125C54.4194 36.5208 54.4194 36.5208 54.5567 36.5594C55.213 36.6089 55.8728 36.5856 56.5242 36.49C56.7274 36.4489 56.9085 36.3332 57.0324 36.1651C57.1563 35.997 57.2143 35.7884 57.1953 35.5796C57.1953 35.2171 57.1953 35.0782 57.1953 34.8082C57.1853 34.4587 57.1341 34.1116 57.0427 33.7744C56.9436 33.543 57.0427 33.2884 56.3945 33.651C56.0199 33.7817 55.6379 33.8899 55.2506 33.975C54.8792 34.026 54.5036 34.0389 54.1296 34.0136" fill="#0077E4"/>
<path opacity="0.7" d="M53.1535 34.9394C52.9476 35.1091 53.1535 36.0271 53.1535 36.3357C53.1535 36.9837 53.001 38.0098 53.0086 38.2103C53.0162 38.4109 53.0086 38.4032 53.1764 38.3723C53.1764 38.3723 53.8093 38.3723 53.9847 38.3723C54.0838 37.6009 54.3508 37.4157 54.7473 37.3849H56.2039C57.1038 37.3849 57.3249 37.5623 57.3249 37.9249C57.3249 38.0406 57.2563 37.9249 57.1343 38.4263C57.441 38.4458 57.7489 38.4224 58.0494 38.3569C58.0494 38.0252 58.0494 37.678 58.0494 37.1843C58.0494 36.5363 58.2248 35.95 58.2248 35.5179C58.2248 34.8699 57.8435 35.1245 57.2792 35.1245C57.3554 35.7262 57.363 36.22 56.7987 36.5517C56.0583 36.7791 55.2821 36.8629 54.5109 36.7986C54.2974 36.7291 54.2287 36.6443 54.2059 36.4977C54.0307 35.9515 53.9006 35.3916 53.8169 34.8236C53.5747 34.8223 53.3351 34.8749 53.1153 34.9779" fill="#0077E4"/>
<path d="M14.3447 35.3405H14.7413V36.5825H16.0987V35.3405H16.5029V38.2643H16.0987V36.9374H14.7413V38.2643H14.3447V35.3405Z" fill="#0077E4"/>
<path d="M17.1128 35.3405H19.0269V35.6953H17.517V36.5825H18.8058V36.9374H17.517V37.9094H19.0345V38.2643H17.1128V35.3405Z" fill="#0077E4"/>
<path d="M21.0479 37.1534L20.5903 35.8188L20.1175 37.1534H21.0479ZM20.4149 35.3405H20.781L21.8486 38.272H21.4292L21.1623 37.5005H20.0107L19.7286 38.272H19.332L20.4149 35.3405Z" fill="#0077E4"/>
<path d="M22.6113 35.6876H21.7114V35.3405H23.9153V35.6876H23.0079V38.2643H22.6113V35.6876Z" fill="#0077E4"/>
<path d="M24.7156 35.3405H24.3193V38.2643H24.7156V35.3405Z" fill="#0077E4"/>
<path d="M25.3413 35.3405H25.7302L27.1411 37.57H27.1563V35.3405H27.5376V38.2643H27.1411L25.7226 36.0116H25.715V38.2643H25.3413V35.3405Z" fill="#0077E4"/>
<path d="M28.0787 37.3308V36.3356C28.0771 36.1907 28.1055 36.0472 28.1619 35.914C28.2184 35.7809 28.3016 35.6611 28.4064 35.5624C28.5112 35.4636 28.6352 35.3881 28.7705 35.3406C28.9058 35.2931 29.0493 35.2746 29.1921 35.2864C29.764 35.2864 30.2521 35.595 30.2521 36.1659V36.297H29.8784V36.2122C29.8784 35.8264 29.5657 35.6413 29.1921 35.6413C29.0993 35.6337 29.0059 35.6459 28.9181 35.6772C28.8303 35.7085 28.7499 35.7581 28.6823 35.8229C28.6147 35.8877 28.5613 35.9661 28.5256 36.0531C28.49 36.1401 28.4728 36.2337 28.4752 36.3279V37.2922C28.4739 37.3892 28.4937 37.4853 28.5331 37.5738C28.5725 37.6622 28.6307 37.7408 28.7034 37.8041C28.7761 37.8673 28.8616 37.9137 28.954 37.9399C29.0463 37.9661 29.1432 37.9715 29.2378 37.9557C29.3208 37.9665 29.4052 37.9596 29.4853 37.9352C29.5655 37.9108 29.6396 37.8696 29.703 37.8143C29.7663 37.759 29.8174 37.6907 29.8529 37.6141C29.8884 37.5374 29.9075 37.454 29.9089 37.3694V37.1225H29.1463V36.7676H30.3055V37.4156C30.3055 38.0019 29.8327 38.3182 29.2531 38.3182C29.1135 38.3355 28.972 38.323 28.8375 38.2816C28.703 38.2402 28.5786 38.1707 28.4723 38.0777C28.366 37.9847 28.2801 37.8701 28.2202 37.7415C28.1603 37.6129 28.1276 37.473 28.1244 37.3308" fill="#0077E4"/>
<path d="M31.6102 37.6085L31.9686 37.462C32.0256 37.6173 32.1306 37.75 32.2679 37.8403C32.4052 37.9306 32.5677 37.9738 32.7312 37.9634C33.082 37.9634 33.3794 37.8014 33.3794 37.4851C33.3794 37.1688 33.1964 37.0839 32.9523 37.0145L32.4185 36.8679C32.022 36.7599 31.7627 36.5594 31.7627 36.0965C31.7682 35.978 31.7977 35.8619 31.8494 35.7555C31.9012 35.6491 31.974 35.5545 32.0635 35.4778C32.1529 35.4011 32.257 35.3439 32.3692 35.3096C32.4815 35.2754 32.5995 35.2648 32.7159 35.2787C32.9216 35.2556 33.1292 35.2992 33.3087 35.4032C33.4883 35.5072 33.6305 35.6662 33.7149 35.8573L33.3718 35.9962C33.3104 35.874 33.2147 35.7729 33.0966 35.7056C32.9785 35.6383 32.8434 35.6079 32.7083 35.6182C32.4338 35.6182 32.1516 35.757 32.1516 36.0656C32.1516 36.3742 32.3118 36.4205 32.6168 36.5131L33.1506 36.6596C33.3269 36.6941 33.4854 36.7904 33.5984 36.9315C33.7114 37.0726 33.7716 37.2495 33.7683 37.4311C33.7683 37.9403 33.3413 38.2951 32.7159 38.2951C32.4789 38.3183 32.2409 38.2611 32.0394 38.1327C31.8379 38.0042 31.6842 37.8117 31.6025 37.5854" fill="#0077E4"/>
<path d="M34.2637 35.3251L36.1778 35.3482L36.1702 35.7031L34.6603 35.6877L34.645 36.5748L35.9414 36.598L35.9338 36.9451L34.645 36.9297L34.6298 37.9017L36.1473 37.9249V38.2797L34.2256 38.2566L34.2637 35.3251Z" fill="#0077E4"/>
<path d="M37.6875 36.7753C38.084 36.7753 38.3204 36.5979 38.3204 36.2276C38.3204 35.8573 38.0612 35.6799 37.6799 35.6799H37.0927V36.7753H37.6875ZM36.6885 35.3404H37.7561C37.8807 35.3267 38.0067 35.3407 38.1254 35.3813C38.2441 35.422 38.3526 35.4883 38.4433 35.5757C38.5341 35.6631 38.6049 35.7694 38.6508 35.8874C38.6968 36.0053 38.7168 36.1319 38.7094 36.2585C38.717 36.4555 38.6553 36.649 38.5352 36.8044C38.4151 36.9598 38.2445 37.067 38.0535 37.1071L38.8924 38.272H38.4501L37.6875 37.1148H37.1384V38.272H36.7342L36.6885 35.3404Z" fill="#0077E4"/>
<path d="M39.655 35.3405H39.2588V38.2643H39.655V35.3405Z" fill="#0077E4"/>
<path d="M40.2729 35.3405H42.1795V35.6953H40.6695V36.5825H41.9583V36.9374H40.6695V37.9094H42.1947V38.2643H40.2729V35.3405Z" fill="#0077E4"/>
<path d="M42.431 37.6085L42.7894 37.462C42.8464 37.6173 42.9514 37.75 43.0887 37.8403C43.2261 37.9306 43.3885 37.9738 43.552 37.9634C43.9028 37.9634 44.2002 37.8014 44.2002 37.4851C44.2002 37.1688 44.0096 37.0839 43.7655 37.0145L43.2393 36.8679C42.8428 36.7599 42.5835 36.5594 42.5835 36.0965C42.589 35.978 42.6185 35.8619 42.6702 35.7555C42.722 35.6491 42.7948 35.5545 42.8843 35.4778C42.9737 35.4011 43.0778 35.3439 43.19 35.3096C43.3023 35.2754 43.4203 35.2648 43.5367 35.2787C43.7424 35.2556 43.95 35.2992 44.1295 35.4032C44.3091 35.5072 44.4513 35.6662 44.5358 35.8573L44.1926 35.9962C44.1312 35.874 44.0355 35.7729 43.9174 35.7056C43.7994 35.6383 43.6642 35.6079 43.5291 35.6182C43.2546 35.6182 42.9724 35.757 42.9724 36.0656C42.9724 36.3742 43.1326 36.4205 43.4376 36.5131L43.9638 36.6596C44.1415 36.6925 44.3018 36.7881 44.4163 36.9294C44.5308 37.0706 44.5921 37.2484 44.5891 37.4311C44.5891 37.9403 44.1545 38.2951 43.5367 38.2951C43.2995 38.3196 43.0609 38.2631 42.8591 38.1344C42.6573 38.0058 42.5039 37.8125 42.4233 37.5854" fill="#0077E4"/>
<path d="M47.1742 37.9248C47.5022 37.9248 47.7462 37.7551 47.7462 37.4234C47.7462 37.0917 47.5098 36.9374 47.1742 36.9374H46.4116V37.9248H47.1742ZM47.1209 36.5979C47.4335 36.5979 47.6699 36.4436 47.6699 36.1273C47.6699 35.811 47.4412 35.6799 47.1285 35.6799H46.4498V36.5979H47.1209ZM46.0532 35.3405H47.2048C47.7233 35.3405 48.0589 35.5873 48.0589 36.0733C48.0612 36.2209 48.0154 36.365 47.9285 36.4836C47.8417 36.6021 47.7186 36.6884 47.5784 36.7291C47.742 36.7572 47.8897 36.8449 47.9937 36.9756C48.0977 37.1064 48.1507 37.2712 48.1428 37.4388C48.1429 37.5515 48.1204 37.6631 48.0766 37.7668C48.0329 37.8705 47.9688 37.9641 47.8882 38.042C47.8076 38.1199 47.7123 38.1805 47.6079 38.22C47.5035 38.2595 47.3923 38.2772 47.281 38.272H46.0532V35.3405Z" fill="#0077E4"/>
<path d="M49.241 37.0608L48.2954 35.3405H48.7301L49.4469 36.6751L50.1485 35.3405H50.5832L49.63 37.0685V38.2643H49.241V37.0608Z" fill="#0077E4"/>
</svg>

