<svg width="210" height="83" viewBox="0 0 210 83" fill="none" xmlns="http://www.w3.org/2000/svg">
<path d="M0 13.3655C0 13.5256 0 13.6857 0 13.8457C69.4153 1.8454 140.376 1.8454 209.792 13.8457C209.792 13.6857 209.792 13.5256 209.792 13.3655C140.994 -4.42587 68.798 -4.42587 0 13.3655" fill="#0077E4"/>
<path d="M23.2052 36.8179H23.3333L27.353 45.4781H18.8813L23.2052 36.8179ZM16.4951 27.4213L0 55.5629H13.8687L15.8705 51.545H30.1075L32.0293 55.5629H46.3464L29.9954 27.4213H16.4951ZM64.8913 34.6408H69.2793C79.2565 34.6408 80.1373 39.5712 80.1373 41.3321C80.1373 43.9733 78.8721 48.3434 70.2883 48.3434H64.8913V34.6408ZM51.0867 27.4213V55.5629H71.0409C86.6552 55.5629 93.9419 50.0723 93.9419 41.4441C93.9419 34.3687 88.6571 27.4213 73.7314 27.4213H51.0867ZM101.917 55.5629H115.722V27.4213H101.917V55.5629ZM186.907 36.8179H187.035L191.039 45.4781H182.567L186.907 36.8179ZM180.197 27.3893L163.686 55.5629H177.554L179.556 51.545H193.777L195.651 55.5629H209.968L193.681 27.4213L180.197 27.3893ZM124.386 36.0495C124.386 41.7322 132.489 42.9488 139.552 44.2134C147.287 45.5901 149.16 45.9903 149.16 47.415C149.16 49.496 145.717 49.9762 143.459 49.9762C140.929 50.0082 137.934 49.6241 136.925 48.0233C136.597 47.4598 136.425 46.8186 136.429 46.1664H122.624C122.752 55.1467 137.245 56.2833 142.322 56.2833C152.299 56.2833 163.029 53.9301 163.029 46.6786C163.029 41.5081 156.751 39.6673 150.41 38.5627C144.068 37.4582 137.598 36.9619 137.438 35.025C137.438 33.4242 140.496 33.1201 142.386 33.1201C143.782 33.0875 145.17 33.3323 146.47 33.8404C147.591 34.3047 148.344 35.025 148.071 36.0815H161.123C160.771 29.0862 152.139 26.749 142.53 26.749C133.306 26.749 124.466 29.5504 124.466 36.0495" fill="white"/>
<path d="M164.166 77.1093H166.04C166.04 77.8457 166.937 78.1178 167.962 78.1178C168.634 78.1178 169.675 77.9897 169.675 77.4455C169.675 76.9012 168.346 76.7571 167.065 76.533C165.784 76.3089 164.454 76.0208 164.454 74.9322C164.454 73.8437 166.152 73.3315 167.657 73.3315C169.499 73.3315 171.164 73.8277 171.164 75.0923H169.307C169.307 74.436 168.506 74.2599 167.593 74.2599C166.969 74.2599 166.248 74.42 166.248 74.8842C166.248 75.3484 166.68 75.3484 168.858 75.7166C169.499 75.7166 171.469 76.0528 171.469 77.3174C171.469 78.582 170.204 79.0622 167.833 79.0622C165.896 79.0622 164.07 78.47 164.102 77.1253L164.166 77.1093ZM162.949 75.2364H161.075C160.947 74.7081 160.114 74.2919 159.153 74.2919C157.408 74.2919 156.751 75.2044 156.751 76.1648C156.751 77.1253 157.408 77.9737 159.153 77.9737C160.339 77.9737 160.995 77.4775 161.155 76.7571H163.029C162.821 78.1178 161.315 78.9822 159.153 78.9822C156.431 78.9822 154.83 77.7176 154.83 76.1648C154.83 74.6121 156.431 73.2834 159.153 73.2834C161.091 73.2834 162.725 73.9878 162.949 75.2364ZM146.582 78.9182V73.4755H153.452V74.484H148.648V75.6526H153.1V76.581H148.6V77.9097H153.548V78.9182H146.582ZM140.737 78.9182V74.484H138.11V73.4755H145.301V74.484H142.674V78.9182H140.737ZM135.083 73.4755H136.909V78.9182H135.083V73.4755ZM125.731 78.9182V73.4755H127.685V75.5565H131.32V73.4755H133.274V78.9182H131.32V76.581H127.685V78.9182H125.731ZM177.763 76.8372L176.609 74.8362L175.424 76.8372H177.763ZM180.965 78.9342H178.884L178.195 77.7176H174.784L174.063 78.9342H172.029L175.504 73.4915H177.554L180.965 78.9342Z" fill="white"/>
<path d="M112.951 82.3757C112.951 82.3757 112.519 83.112 113.48 82.984C115.994 82.6958 117.323 82.4237 119.533 81.9915C119.725 81.9915 119.902 81.9915 119.902 81.7994C119.836 81.2149 119.809 80.6266 119.822 80.0385C119.832 79.7032 119.902 79.3724 120.03 79.0621C120.478 78.1176 119.79 77.8615 118.797 77.8135C117.804 77.7654 117.531 77.8135 116.971 77.8135H115.097C114.393 77.8135 113.96 78.1816 113.752 79.1261C113.655 80.2287 113.385 81.3092 112.951 82.3276V82.3757ZM113.672 70.4819C113.352 70.4819 113.24 70.578 113.24 70.7541C113.228 71.3431 113.266 71.9321 113.352 72.5149C113.608 73.2513 113.912 74.676 114.136 75.3483C114.28 75.7805 114.28 75.7805 114.569 75.8605C115.947 75.9632 117.333 75.9149 118.701 75.7165C119.127 75.6313 119.508 75.3911 119.768 75.0423C120.028 74.6936 120.15 74.2608 120.11 73.8275C120.11 73.0752 120.11 72.787 120.11 72.2268C120.089 71.5016 119.981 70.7814 119.79 70.0817C119.581 69.6015 119.79 69.0733 118.428 69.8256C117.641 70.0969 116.839 70.3214 116.026 70.4979C115.246 70.6037 114.457 70.6305 113.672 70.578" fill="white"/>
<path opacity="0.7" d="M111.622 72.499C111.19 72.8511 111.622 74.756 111.622 75.3964C111.622 76.741 111.302 78.87 111.318 79.2862C111.334 79.7024 111.318 79.6864 111.67 79.6224C111.67 79.6224 112.999 79.6224 113.368 79.6224C113.576 78.0216 114.136 77.6374 114.969 77.5734H118.028C119.918 77.5734 120.382 77.9416 120.382 78.694C120.382 78.9341 120.238 78.694 119.982 79.7345C120.626 79.7748 121.272 79.7264 121.903 79.5904C121.903 78.9021 121.903 78.1817 121.903 77.1572C121.903 75.8126 122.272 74.596 122.272 73.6995C122.272 72.3549 121.471 72.8831 120.286 72.8831C120.446 74.1317 120.462 75.1562 119.277 75.8446C117.722 76.3165 116.092 76.4903 114.473 76.3568C114.024 76.2128 113.88 76.0367 113.832 75.7325C113.464 74.5992 113.191 73.4373 113.015 72.2588C112.507 72.256 112.004 72.3653 111.542 72.579" fill="white"/>
<path d="M30.1235 73.3315H30.9563V75.9088H33.8069V73.3315H34.6557V79.3985H33.8069V76.6451H30.9563V79.3985H30.1235V73.3315Z" fill="white"/>
<path d="M35.9369 73.3315H39.9566V74.0679H36.7857V75.9088H39.4921V76.6451H36.7857V78.6621H39.9726V79.3985H35.9369V73.3315Z" fill="white"/>
<path d="M44.2005 77.0933L43.2396 74.324L42.2467 77.0933H44.2005ZM42.8712 73.3315H43.6399L45.882 79.4145H45.0012L44.4407 77.8137H42.0225L41.4299 79.4145H40.5972L42.8712 73.3315Z" fill="white"/>
<path d="M47.4834 74.0519H45.5936V73.3315H50.2219V74.0519H48.3161V79.3985H47.4834V74.0519Z" fill="white"/>
<path d="M51.9034 73.3315H51.0707V79.3985H51.9034V73.3315Z" fill="white"/>
<path d="M53.2167 73.3315H54.0334L56.9961 77.9578H57.0282V73.3315H57.8289V79.3985H56.9961L54.0174 74.7242H54.0014V79.3985H53.2167V73.3315Z" fill="white"/>
<path d="M58.9659 77.4614V75.3964C58.9627 75.0958 59.0223 74.7979 59.1408 74.5216C59.2593 74.2453 59.4341 73.9968 59.6542 73.7919C59.8742 73.587 60.1346 73.4303 60.4187 73.3317C60.7028 73.2331 61.0044 73.1948 61.3041 73.2194C62.5052 73.2194 63.5301 73.8597 63.5301 75.0442V75.3164H62.7454V75.1403C62.7454 74.3399 62.0888 73.9557 61.3041 73.9557C61.1092 73.9399 60.9131 73.9653 60.7287 74.0302C60.5443 74.0951 60.3756 74.1981 60.2336 74.3325C60.0916 74.4669 59.9795 74.6297 59.9046 74.8102C59.8296 74.9907 59.7936 75.185 59.7987 75.3804V77.3814C59.796 77.5826 59.8375 77.7821 59.9203 77.9656C60.0031 78.1491 60.1251 78.3123 60.2778 78.4435C60.4305 78.5748 60.6101 78.671 60.8041 78.7253C60.998 78.7796 61.2015 78.7908 61.4002 78.758C61.5745 78.7806 61.7516 78.7661 61.9199 78.7156C62.0882 78.665 62.244 78.5795 62.377 78.4647C62.51 78.3499 62.6173 78.2083 62.6918 78.0492C62.7663 77.8901 62.8064 77.7171 62.8095 77.5414V77.0292H61.208V76.2928H63.6422V77.6375C63.6422 78.8541 62.6493 79.5104 61.4322 79.5104C61.1392 79.5462 60.8419 79.5203 60.5595 79.4344C60.2771 79.3484 60.0159 79.2042 59.7926 79.0112C59.5693 78.8182 59.3889 78.5806 59.2631 78.3136C59.1373 78.0467 59.0688 77.7564 59.062 77.4614" fill="white"/>
<path d="M66.3806 78.0375L67.1333 77.7334C67.2531 78.0558 67.4735 78.331 67.7619 78.5184C68.0503 78.7058 68.3915 78.7954 68.7348 78.7739C69.4715 78.7739 70.096 78.4377 70.096 77.7814C70.096 77.1251 69.7117 76.949 69.1992 76.8049L68.0782 76.5008C67.2454 76.2767 66.7009 75.8605 66.7009 74.9C66.7124 74.6542 66.7744 74.4133 66.8831 74.1925C66.9918 73.9716 67.1448 73.7755 67.3326 73.6163C67.5203 73.4571 67.7389 73.3383 67.9747 73.2672C68.2104 73.1962 68.4582 73.1744 68.7028 73.2032C69.1346 73.1552 69.5705 73.2457 69.9476 73.4615C70.3247 73.6773 70.6234 74.0073 70.8007 74.4038L70.08 74.6919C69.9512 74.4383 69.7501 74.2285 69.5022 74.0889C69.2542 73.9493 68.9705 73.8862 68.6867 73.9075C68.1102 73.9075 67.5177 74.1957 67.5177 74.836C67.5177 75.4763 67.854 75.5724 68.4946 75.7644L69.6156 76.0686C69.9857 76.1401 70.3187 76.3399 70.556 76.6327C70.7933 76.9255 70.9196 77.2926 70.9128 77.6694C70.9128 78.7259 70.016 79.4622 68.7028 79.4622C68.2049 79.5103 67.7051 79.3917 67.282 79.1252C66.8588 78.8586 66.5361 78.4592 66.3646 77.9895" fill="white"/>
<path d="M71.9537 73.2993L75.9734 73.3473L75.9574 74.0837L72.7865 74.0517L72.7545 75.8926L75.477 75.9406L75.4609 76.6609L72.7545 76.6289L72.7224 78.6459L75.9094 78.6939V79.4303L71.8737 79.3823L71.9537 73.2993Z" fill="white"/>
<path d="M79.1443 76.3088C79.9771 76.3088 80.4735 75.9406 80.4735 75.1723C80.4735 74.4039 79.929 74.0357 79.1283 74.0357H77.8952V76.3088H79.1443ZM77.0464 73.3314H79.2884C79.55 73.303 79.8147 73.332 80.0639 73.4163C80.3131 73.5006 80.541 73.6382 80.7315 73.8195C80.9221 74.0009 81.0708 74.2216 81.1673 74.4663C81.2638 74.711 81.3058 74.9737 81.2903 75.2363C81.3064 75.6452 81.1768 76.0467 80.9246 76.3691C80.6724 76.6915 80.314 76.9141 79.913 76.9971L81.6746 79.4143H80.7458L79.1443 77.0131H77.9913V79.4143H77.1425L77.0464 73.3314Z" fill="white"/>
<path d="M83.2761 73.3315H82.4434V79.3985H83.2761V73.3315Z" fill="white"/>
<path d="M84.5734 73.3315H88.577V74.0679H85.4061V75.9088H88.1126V76.6451H85.4061V78.6621H88.609V79.3985H84.5734V73.3315Z" fill="white"/>
<path d="M89.1055 78.0375L89.8582 77.7334C89.9779 78.0558 90.1983 78.331 90.4867 78.5184C90.7752 78.7058 91.1163 78.7954 91.4596 78.7739C92.1963 78.7739 92.8209 78.4377 92.8209 77.7814C92.8209 77.1251 92.4205 76.949 91.908 76.8049L90.803 76.5008C89.9703 76.2767 89.4258 75.8605 89.4258 74.9C89.4373 74.6542 89.4993 74.4133 89.608 74.1925C89.7166 73.9716 89.8696 73.7755 90.0574 73.6163C90.2452 73.4571 90.4638 73.3383 90.6995 73.2672C90.9352 73.1962 91.1831 73.1744 91.4276 73.2032C91.8595 73.1552 92.2954 73.2457 92.6725 73.4615C93.0495 73.6773 93.3483 74.0073 93.5255 74.4038L92.8049 74.6919C92.676 74.4383 92.475 74.2285 92.227 74.0889C91.9791 73.9493 91.6954 73.8862 91.4116 73.9075C90.8351 73.9075 90.2425 74.1957 90.2425 74.836C90.2425 75.4763 90.5788 75.5724 91.2194 75.7644L92.3244 76.0686C92.6975 76.1368 93.0343 76.3351 93.2747 76.6282C93.5152 76.9214 93.6438 77.2903 93.6376 77.6694C93.6376 78.7259 92.7248 79.4622 91.4276 79.4622C90.9293 79.5131 90.4283 79.3957 90.0045 79.1288C89.5808 78.8619 89.2586 78.4608 89.0895 77.9895" fill="white"/>
<path d="M99.0666 78.6941C99.7552 78.6941 100.268 78.3419 100.268 77.6536C100.268 76.9653 99.7712 76.6451 99.0666 76.6451H97.4651V78.6941H99.0666ZM98.9545 75.9408C99.6111 75.9408 100.108 75.6206 100.108 74.9643C100.108 74.308 99.6271 74.0359 98.9705 74.0359H97.5452V75.9408H98.9545ZM96.7124 73.3315H99.1306C100.22 73.3315 100.924 73.8438 100.924 74.8523C100.929 75.1584 100.833 75.4576 100.65 75.7035C100.468 75.9495 100.21 76.1285 99.9153 76.2129C100.259 76.2712 100.569 76.4532 100.787 76.7246C101.006 76.9959 101.117 77.3378 101.1 77.6856C101.101 77.9196 101.053 78.1511 100.962 78.3663C100.87 78.5814 100.735 78.7757 100.566 78.9373C100.397 79.0989 100.196 79.2246 99.9773 79.3066C99.7581 79.3886 99.5245 79.4253 99.2908 79.4145H96.7124V73.3315Z" fill="white"/>
<path d="M103.406 76.9013L101.421 73.3315H102.333L103.839 76.1009L105.312 73.3315H106.225L104.223 76.9173V79.3985H103.406V76.9013Z" fill="white"/>
</svg>
