<svg width="520" height="352" viewBox="0 0 520 352" fill="none" xmlns="http://www.w3.org/2000/svg">
<mask id="mask0" mask-type="alpha" maskUnits="userSpaceOnUse" x="0" y="0" width="520" height="352">
<rect width="520" height="352" fill="#C4C4C4"/>
</mask>
<g mask="url(#mask0)">
<path d="M421 91H456L462 351H415L421 91Z" fill="#AA6478"/>
<path d="M421.238 90.6528H456.285V96.9072H421.238V90.6528Z" fill="#A0556E"/>
<path d="M419.047 92.7378H458.476C459.685 92.7378 460.666 91.8042 460.666 90.6529V82.3134C460.666 81.1621 459.685 80.2285 458.476 80.2285H419.047C417.837 80.2285 416.856 81.1621 416.856 82.3134V90.6529C416.856 91.8045 417.837 92.7378 419.047 92.7378Z" fill="#BE788C"/>
<path d="M436.571 115.672V107.332H429.999C428.789 107.332 427.809 106.399 427.809 105.247C427.809 104.096 428.789 103.163 429.999 103.163H443.142V101.078C443.142 99.9262 444.122 98.9927 445.333 98.9927C446.543 98.9927 447.523 99.9262 447.523 101.078V103.163H456.285V107.332H440.952V115.672H456.285V119.842H434.38V121.927C434.38 123.078 433.401 124.012 432.19 124.012C430.979 124.012 429.999 123.078 429.999 121.927V119.842H421.237V115.672H436.571Z" fill="#A0556E"/>
<path d="M438.761 86.4824C439.971 86.4824 440.952 87.4161 440.952 88.5675V92.7378H436.571V88.5675C436.571 87.4161 437.552 86.4824 438.761 86.4824Z" fill="#AA6478"/>
<path d="M375.238 1C383.808 1 391.679 3.78431 397.973 8.41627C401.579 6.36826 405.78 5.16992 410.285 5.16992C423.593 5.16992 434.381 15.438 434.381 28.1045C434.381 28.8585 434.337 29.6027 434.262 30.338C441.748 31.3031 447.524 37.3941 447.524 44.7842C447.524 47.1934 446.9 49.4605 445.813 51.4634C448.18 53.3757 449.714 56.1926 449.714 59.3789C449.714 65.1363 444.81 69.8037 438.762 69.8037C432.713 69.8037 427.809 65.1363 427.809 59.3789C427.809 59.1744 427.86 58.9836 427.873 58.7819C423.229 57.4858 419.512 54.1566 417.835 49.8741C415.458 50.6206 412.925 51.0391 410.286 51.0391C409.91 51.0391 409.544 51.0019 409.173 50.9857C403.338 63.3013 390.354 71.8887 375.238 71.8887C354.672 71.8887 338 56.0197 338 36.4443C338 16.869 354.672 1 375.238 1Z" fill="#D9D7DC"/>
<path d="M359.904 57.2936C374.208 57.2936 383.505 48.634 387.704 36.4951C388.132 35.2578 389.302 34.3899 390.67 34.3804C391.731 34.3729 392.761 34.3593 392.761 34.3593C408.336 34.3593 420.972 22.4529 421.215 7.68359C429.023 11.4776 434.38 19.1878 434.38 28.1045C434.38 28.8585 434.336 29.6027 434.262 30.338C441.747 31.3031 447.523 37.394 447.523 44.784C447.523 47.1932 446.899 49.4603 445.813 51.4632C448.692 53.7897 450.339 57.4553 449.49 61.4963C448.651 65.4918 445.292 68.7473 441.1 69.5726C434.029 70.9646 427.809 65.863 427.809 59.3786C427.809 59.1741 427.86 58.9832 427.872 58.7816C423.228 57.4855 419.511 54.1564 417.834 49.8739C415.457 50.6204 412.924 51.0388 410.285 51.0388C409.909 51.0388 409.544 51.0016 409.172 50.9855C403.337 63.3009 390.353 71.8882 375.238 71.8882C360.611 71.8882 347.99 63.8419 341.899 52.164C347.072 55.398 353.252 57.2936 359.904 57.2936Z" fill="#BBBBC5"/>
<path d="M436.571 152.611V144.272H429.999C428.789 144.272 427.809 143.338 427.809 142.187C427.809 141.036 428.789 140.102 429.999 140.102H443.142V138.017C443.142 136.866 444.122 135.932 445.333 135.932C446.543 135.932 447.523 136.866 447.523 138.017V140.102H456.285V144.272H440.952V152.611H456.285V156.781H434.38V158.866C434.38 160.018 433.401 160.951 432.19 160.951C430.979 160.951 429.999 160.018 429.999 158.866V156.781H421.237V152.611H436.571Z" fill="#A0556E"/>
<path d="M436.571 189.733V181.393H429.999C428.789 181.393 427.809 180.459 427.809 179.308C427.809 178.157 428.789 177.223 429.999 177.223H443.142V175.138C443.142 173.987 444.122 173.053 445.333 173.053C446.543 173.053 447.523 173.987 447.523 175.138V177.223H456.285V181.393H440.952V189.733H456.285V193.902H434.38V195.987C434.38 197.139 433.401 198.072 432.19 198.072C430.979 198.072 429.999 197.139 429.999 195.987V193.902H421.237V189.733H436.571Z" fill="#A0556E"/>
<path d="M436.571 226.854V218.514H429.999C428.789 218.514 427.809 217.581 427.809 216.429C427.809 215.278 428.789 214.344 429.999 214.344H443.142V212.259C443.142 211.108 444.122 210.174 445.333 210.174C446.543 210.174 447.523 211.108 447.523 212.259V214.344H456.285V218.514H440.952V226.854H456.285V231.024H434.38V233.109C434.38 234.26 433.401 235.194 432.19 235.194C430.979 235.194 429.999 234.26 429.999 233.109V231.024H421.237V226.854H436.571Z" fill="#A0556E"/>
<path d="M436.571 263.975V255.635H429.999C428.789 255.635 427.809 254.702 427.809 253.55C427.809 252.399 428.789 251.465 429.999 251.465H443.142V249.38C443.142 248.229 444.122 247.295 445.333 247.295C446.543 247.295 447.523 248.229 447.523 249.38V251.465H456.285V255.635H440.952V263.975H456.285V268.145H434.38V270.23C434.38 271.381 433.401 272.315 432.19 272.315C430.979 272.315 429.999 271.381 429.999 270.23V268.145H421.237V263.975H436.571Z" fill="#A0556E"/>
<path d="M436.571 301.096V292.756H429.999C428.789 292.756 427.809 291.823 427.809 290.671C427.809 289.52 428.789 288.586 429.999 288.586H443.142V286.501C443.142 285.35 444.122 284.417 445.333 284.417C446.543 284.417 447.523 285.35 447.523 286.501V288.586H456.285V292.756H440.952V301.096H456.285V305.266H434.38V307.351C434.38 308.502 433.401 309.436 432.19 309.436C430.979 309.436 429.999 308.502 429.999 307.351V305.266H421.237V301.096H436.571Z" fill="#A0556E"/>
<path d="M436.571 338.217V329.877H429.999C428.789 329.877 427.809 328.944 427.809 327.792C427.809 326.641 428.789 325.708 429.999 325.708H443.142V323.623C443.142 322.471 444.122 321.538 445.333 321.538C446.543 321.538 447.523 322.471 447.523 323.623V325.708H456.285V329.877H440.952V338.217H456.285V342.387H434.38V344.472C434.38 345.624 433.401 346.557 432.19 346.557C430.979 346.557 429.999 345.624 429.999 344.472V342.387H421.237V338.217H436.571Z" fill="#A0556E"/>
<path d="M483 351C457.48 351 261.121 352.175 248.034 345.887C234.947 339.599 225.786 299.777 213.354 258.9C204.057 228.335 193.723 205.454 186.525 198.117C179.327 190.779 171.475 191.83 165.586 198.117C159.697 204.404 149.227 221.174 136.794 258.9C122.452 302.421 112.012 328.078 102.113 339.603C92.2152 351.127 68 351 68 351" stroke="url(#paint0_linear)" stroke-width="2" stroke-linecap="round" stroke-linejoin="round"/>
<path d="M483 351.202C404 352 344 350.202 326.034 329.9C308.069 309.598 303.786 266.354 291.354 199.606C282.057 149.698 271.723 112.336 264.525 100.355C257.327 88.3737 249.475 90.0892 243.586 100.356C237.697 110.622 227.227 138.004 214.794 199.606C200.452 270.67 197.801 297.357 180.113 327.468C162.426 357.58 38 350.202 38 350.202" stroke="url(#paint1_linear)" stroke-width="2" stroke-linecap="round" stroke-linejoin="round"/>
<path d="M166.531 183H165.016L158.773 173.414H158.711C158.794 174.539 158.836 175.57 158.836 176.508V183H157.609V171.578H159.109L165.336 181.125H165.398C165.388 180.984 165.365 180.534 165.328 179.773C165.292 179.008 165.279 178.461 165.289 178.133V171.578H166.531V183Z" fill="#BF0000"/>
<path d="M179.586 177.273C179.586 179.102 179.122 180.539 178.195 181.586C177.273 182.633 175.99 183.156 174.344 183.156C172.661 183.156 171.362 182.643 170.445 181.617C169.534 180.586 169.078 179.133 169.078 177.258C169.078 175.398 169.536 173.958 170.453 172.938C171.37 171.911 172.672 171.398 174.359 171.398C176 171.398 177.281 171.919 178.203 172.961C179.125 174.003 179.586 175.44 179.586 177.273ZM170.484 177.273C170.484 178.82 170.812 179.995 171.469 180.797C172.13 181.594 173.089 181.992 174.344 181.992C175.609 181.992 176.565 181.594 177.211 180.797C177.857 180 178.18 178.826 178.18 177.273C178.18 175.737 177.857 174.573 177.211 173.781C176.57 172.984 175.62 172.586 174.359 172.586C173.094 172.586 172.13 172.987 171.469 173.789C170.812 174.586 170.484 175.747 170.484 177.273Z" fill="#BF0000"/>
<path d="M184.008 178.617L181.031 174.438H182.508L184.766 177.719L187.016 174.438H188.477L185.5 178.617L188.633 183H187.164L184.766 179.531L182.344 183H180.875L184.008 178.617Z" fill="#BF0000"/>
<path d="M248.68 70.6016C247.424 70.6016 246.432 71.0208 245.703 71.8594C244.979 72.6927 244.617 73.8359 244.617 75.2891C244.617 76.7839 244.966 77.9401 245.664 78.7578C246.367 79.5703 247.367 79.9766 248.664 79.9766C249.461 79.9766 250.37 79.8333 251.391 79.5469V80.7109C250.599 81.0078 249.622 81.1562 248.461 81.1562C246.779 81.1562 245.479 80.6458 244.562 79.625C243.651 78.6042 243.195 77.1536 243.195 75.2734C243.195 74.0964 243.414 73.0651 243.852 72.1797C244.294 71.2943 244.93 70.612 245.758 70.1328C246.591 69.6536 247.57 69.4141 248.695 69.4141C249.893 69.4141 250.94 69.6328 251.836 70.0703L251.273 71.2109C250.409 70.8047 249.544 70.6016 248.68 70.6016Z" fill="#BF0000"/>
<path d="M263.797 75.2734C263.797 77.1016 263.333 78.5391 262.406 79.5859C261.484 80.6328 260.201 81.1562 258.555 81.1562C256.872 81.1562 255.573 80.6432 254.656 79.6172C253.745 78.5859 253.289 77.1328 253.289 75.2578C253.289 73.3984 253.747 71.9583 254.664 70.9375C255.581 69.9115 256.883 69.3984 258.57 69.3984C260.211 69.3984 261.492 69.9193 262.414 70.9609C263.336 72.0026 263.797 73.4401 263.797 75.2734ZM254.695 75.2734C254.695 76.8203 255.023 77.9948 255.68 78.7969C256.341 79.5938 257.299 79.9922 258.555 79.9922C259.82 79.9922 260.776 79.5938 261.422 78.7969C262.068 78 262.391 76.8255 262.391 75.2734C262.391 73.737 262.068 72.5729 261.422 71.7812C260.781 70.9844 259.831 70.5859 258.57 70.5859C257.305 70.5859 256.341 70.987 255.68 71.7891C255.023 72.5859 254.695 73.7474 254.695 75.2734Z" fill="#BF0000"/>
</g>
<defs>
<linearGradient id="paint0_linear" x1="258.16" y1="351.193" x2="258.16" y2="197.794" gradientUnits="userSpaceOnUse">
<stop stop-color="#37E1C3"/>
<stop offset="0.458333" stop-color="#0063BF"/>
<stop offset="0.708333" stop-color="#9900BF"/>
<stop offset="0.979167" stop-color="#BF0000"/>
</linearGradient>
<linearGradient id="paint1_linear" x1="256.5" y1="350.402" x2="256.5" y2="99.8304" gradientUnits="userSpaceOnUse">
<stop stop-color="#37E1C3"/>
<stop offset="0.458333" stop-color="#0063BF"/>
<stop offset="0.708333" stop-color="#9900BF"/>
<stop offset="0.979167" stop-color="#BF0000"/>
</linearGradient>
</defs>
</svg>
