<svg width="28" height="33" viewBox="0 0 28 33" fill="none" xmlns="http://www.w3.org/2000/svg">
<path d="M27.74 14.1901C25.875 12.2675 23.486 10.9356 20.87 10.3601C18.9494 9.87737 16.98 9.61567 15 9.58007V4.28007C14.9687 3.38172 14.5829 2.53233 13.927 1.91767C13.2711 1.303 12.3985 0.973085 11.5 1.00007C10.6015 0.973085 9.7289 1.303 9.073 1.91767C8.41711 2.53233 8.03132 3.38172 8 4.28007V14.2801L6.4 12.7001C5.69519 12.0087 4.74729 11.6214 3.76 11.6214C2.7727 11.6214 1.82481 12.0087 1.12 12.7001C0.76687 13.0412 0.485793 13.4498 0.293411 13.9015C0.10103 14.3533 0.00125533 14.8391 -3.03762e-06 15.3301C-0.0183386 16.2821 0.341229 17.2026 0.999997 17.8901L5.66 23.4101C5.88481 24.8205 6.36971 26.1768 7.09 27.4101C7.61625 28.3584 8.29153 29.216 9.09 29.9501V31.8701C9.08685 32.1438 9.18878 32.4084 9.3748 32.6093C9.56082 32.8102 9.81678 32.9322 10.09 32.9501H24C24.2732 32.9322 24.5292 32.8102 24.7152 32.6093C24.9012 32.4084 25.0031 32.1438 25 31.8701V29.1701C26.965 26.8304 28.029 23.8653 28 20.8101V14.8101C27.9875 14.5796 27.8956 14.3605 27.74 14.1901ZM26 20.8601C26.0639 23.5188 25.1372 26.1064 23.4 28.1201C23.1793 28.2999 23.0361 28.5577 23 28.8401V31.0001H11.14V29.5201C11.1402 29.3563 11.1002 29.1949 11.0235 29.0502C10.9468 28.9055 10.8357 28.7818 10.7 28.6901C9.95058 28.0757 9.33175 27.3174 8.88 26.4601C8.243 25.3814 7.83454 24.1832 7.68 22.9401C7.66927 22.7237 7.58855 22.5166 7.45 22.3501L2.53 16.5301C2.36975 16.3719 2.24251 16.1835 2.15567 15.9758C2.06883 15.7681 2.02411 15.5452 2.02411 15.3201C2.02411 15.0949 2.06883 14.872 2.15567 14.6643C2.24251 14.4566 2.36975 14.2682 2.53 14.1101C2.85926 13.7858 3.30286 13.604 3.765 13.604C4.22714 13.604 4.67074 13.7858 5 14.1101L8 17.1101V20.2501L10 19.2501V4.28007C10.0356 3.91399 10.2118 3.576 10.4916 3.33725C10.7714 3.0985 11.1329 2.97762 11.5 3.00007C11.8671 2.97762 12.2286 3.0985 12.5084 3.33725C12.7882 3.576 12.9644 3.91399 13 4.28007V16.0801L15 16.5101V11.5901C15.8392 11.6066 16.677 11.6667 17.51 11.7701V17.0001L19.11 17.3501V12.0001C19.52 12.0801 19.94 12.1701 20.37 12.2801C20.8884 12.4157 21.3992 12.5793 21.9 12.7701V17.9201L23.5 18.2701V13.5001C24.409 13.9589 25.2503 14.5411 26 15.2301V20.8601Z" fill="black"/>
</svg>
