<svg width="35" height="36" viewBox="0 0 35 36" fill="none" xmlns="http://www.w3.org/2000/svg">
<path opacity="0.5" d="M12.8129 4.73272C12.9304 4.60255 13.0915 4.52441 13.2584 4.52441H23.2556C25.1003 4.52441 26.623 6.11951 26.623 8.05946V27.942C26.623 29.8821 25.1003 31.4772 23.2556 31.4772H9.68688C7.84214 31.4772 6.31943 29.8821 6.31943 27.942V12.1544C6.31943 11.9852 6.39373 11.8226 6.49892 11.6988L12.8129 4.73272ZM12.6334 6.82257L8.40544 11.4905H11.1539C11.9709 11.4905 12.6334 10.8003 12.6334 9.94101V6.82257ZM9.68688 30.1751H23.2556C24.4131 30.1751 25.385 29.1661 25.385 27.942V8.05946C25.385 6.84211 24.4193 5.82649 23.2556 5.82649H13.8714V9.94101C13.8714 11.5229 12.658 12.7925 11.1539 12.7925H7.55747V27.942C7.55747 29.1661 8.52314 30.1751 9.68688 30.1751Z" fill="#313336"/>
<path opacity="0.5" d="M11.3766 25.6829H21.5656C21.906 25.6829 22.1846 25.9757 22.1846 26.3339C22.1846 26.6919 21.906 26.9849 21.5656 26.9849H11.3703C11.0299 26.9849 10.7513 26.6919 10.7513 26.3339C10.7513 25.9757 11.0299 25.6829 11.3766 25.6829Z" fill="#313336"/>
<path opacity="0.5" d="M16.9241 23.3456C16.8064 23.4758 16.6455 23.5539 16.4723 23.5539C16.2989 23.5539 16.138 23.4758 16.0204 23.3456L12.393 19.2507C12.1577 18.9901 12.1763 18.5735 12.4238 18.3327C12.6716 18.0853 13.0677 18.1047 13.2967 18.3652L15.8533 21.2492V14.14C15.8533 13.7818 16.1319 13.489 16.4723 13.489C16.8127 13.489 17.0913 13.7818 17.0913 14.14V21.2492L19.6417 18.3652C19.8769 18.1049 20.2669 18.0853 20.5145 18.3327C20.762 18.5801 20.7806 18.9903 20.5454 19.2507L16.9241 23.3456Z" fill="#313336"/>
</svg>
