<svg width="520" height="352" viewBox="0 0 520 352" fill="none" xmlns="http://www.w3.org/2000/svg">
<mask id="mask0" mask-type="alpha" maskUnits="userSpaceOnUse" x="0" y="0" width="520" height="352">
<rect width="520" height="352" fill="#C4C4C4"/>
</mask>
<g mask="url(#mask0)">
<path d="M520 351.528C494.48 351.528 350.121 351.724 337.034 350.55C323.947 349.375 314.786 341.939 302.354 334.306C293.057 328.598 282.723 324.326 275.525 322.955C268.327 321.585 260.475 321.781 254.586 322.956C248.697 324.13 238.227 327.261 225.794 334.306C211.452 342.433 201.012 347.224 191.113 349.376C181.215 351.528 144 352 144 352" stroke="url(#paint0_linear)" stroke-width="2" stroke-linecap="round" stroke-linejoin="round"/>
<path d="M470 351.422C444.48 351.422 428.121 351.928 415.034 348.889C401.947 345.85 392.786 326.605 380.354 306.849C371.057 292.077 360.723 281.019 353.525 277.473C346.327 273.927 338.475 274.434 332.586 277.473C326.697 280.512 316.227 288.616 303.794 306.849C289.452 327.882 293.727 337.054 269.113 345.852C244.5 354.65 31 351.422 31 351.422" stroke="url(#paint1_linear)" stroke-width="2" stroke-linecap="round" stroke-linejoin="round"/>
<path d="M337.68 258.602C336.424 258.602 335.432 259.021 334.703 259.859C333.979 260.693 333.617 261.836 333.617 263.289C333.617 264.784 333.966 265.94 334.664 266.758C335.367 267.57 336.367 267.977 337.664 267.977C338.461 267.977 339.37 267.833 340.391 267.547V268.711C339.599 269.008 338.622 269.156 337.461 269.156C335.779 269.156 334.479 268.646 333.562 267.625C332.651 266.604 332.195 265.154 332.195 263.273C332.195 262.096 332.414 261.065 332.852 260.18C333.294 259.294 333.93 258.612 334.758 258.133C335.591 257.654 336.57 257.414 337.695 257.414C338.893 257.414 339.94 257.633 340.836 258.07L340.273 259.211C339.409 258.805 338.544 258.602 337.68 258.602Z" fill="#0047B1"/>
<path d="M352.797 263.273C352.797 265.102 352.333 266.539 351.406 267.586C350.484 268.633 349.201 269.156 347.555 269.156C345.872 269.156 344.573 268.643 343.656 267.617C342.745 266.586 342.289 265.133 342.289 263.258C342.289 261.398 342.747 259.958 343.664 258.938C344.581 257.911 345.883 257.398 347.57 257.398C349.211 257.398 350.492 257.919 351.414 258.961C352.336 260.003 352.797 261.44 352.797 263.273ZM343.695 263.273C343.695 264.82 344.023 265.995 344.68 266.797C345.341 267.594 346.299 267.992 347.555 267.992C348.82 267.992 349.776 267.594 350.422 266.797C351.068 266 351.391 264.826 351.391 263.273C351.391 261.737 351.068 260.573 350.422 259.781C349.781 258.984 348.831 258.586 347.57 258.586C346.305 258.586 345.341 258.987 344.68 259.789C344.023 260.586 343.695 261.747 343.695 263.273Z" fill="#0047B1"/>
<line x1="90" y1="276" x2="90" y2="350" stroke="#313336" stroke-width="2" stroke-linecap="round"/>
<path d="M91.0938 305.279C106.057 305.279 118.188 291.561 118.188 274.639C118.188 257.718 106.057 244 91.0938 244C76.1303 244 64 257.718 64 274.639C64 291.561 76.1303 305.279 91.0938 305.279Z" fill="#B3E59F"/>
<path d="M88.7626 249.019C88.7626 276.422 68.8897 298.637 44.3754 298.637C19.8611 298.637 -0.0117188 276.422 -0.0117188 249.019C-0.0117188 221.616 19.8611 149.988 44.3754 149.988C68.8897 149.988 88.7626 221.616 88.7626 249.019Z" fill="#95D6A4"/>
<line x1="45" y1="203" x2="45" y2="350" stroke="#313336" stroke-width="2" stroke-linecap="round"/>
<line x1="22.4142" y1="244" x2="44" y2="265.586" stroke="#313336" stroke-width="2" stroke-linecap="round"/>
<path d="M257.531 315H256.016L249.773 305.414H249.711C249.794 306.539 249.836 307.57 249.836 308.508V315H248.609V303.578H250.109L256.336 313.125H256.398C256.388 312.984 256.365 312.534 256.328 311.773C256.292 311.008 256.279 310.461 256.289 310.133V303.578H257.531V315Z" fill="#0077E4"/>
<path d="M270.586 309.273C270.586 311.102 270.122 312.539 269.195 313.586C268.273 314.633 266.99 315.156 265.344 315.156C263.661 315.156 262.362 314.643 261.445 313.617C260.534 312.586 260.078 311.133 260.078 309.258C260.078 307.398 260.536 305.958 261.453 304.938C262.37 303.911 263.672 303.398 265.359 303.398C267 303.398 268.281 303.919 269.203 304.961C270.125 306.003 270.586 307.44 270.586 309.273ZM261.484 309.273C261.484 310.82 261.812 311.995 262.469 312.797C263.13 313.594 264.089 313.992 265.344 313.992C266.609 313.992 267.565 313.594 268.211 312.797C268.857 312 269.18 310.826 269.18 309.273C269.18 307.737 268.857 306.573 268.211 305.781C267.57 304.984 266.62 304.586 265.359 304.586C264.094 304.586 263.13 304.987 262.469 305.789C261.812 306.586 261.484 307.747 261.484 309.273Z" fill="#0077E4"/>
<path d="M275.008 310.617L272.031 306.438H273.508L275.766 309.719L278.016 306.438H279.477L276.5 310.617L279.633 315H278.164L275.766 311.531L273.344 315H271.875L275.008 310.617Z" fill="#0077E4"/>
</g>
<defs>
<linearGradient id="paint0_linear" x1="298" y1="351.54" x2="298" y2="322" gradientUnits="userSpaceOnUse">
<stop stop-color="#37E1C3"/>
<stop offset="1" stop-color="#0047B1"/>
</linearGradient>
<linearGradient id="paint1_linear" x1="295.676" y1="351.481" x2="295.676" y2="275" gradientUnits="userSpaceOnUse">
<stop stop-color="#37E1C3"/>
<stop offset="1" stop-color="#0047B1"/>
</linearGradient>
</defs>
</svg>
