<svg width="428" height="372" viewBox="0 0 428 372" fill="none" xmlns="http://www.w3.org/2000/svg">
<path d="M382.571 57.7388H37.0537V292.312H382.571V57.7388Z" fill="#F2F2F2"/>
<path fill-rule="evenodd" clip-rule="evenodd" d="M34.4195 57.7388H385.162C389.48 57.7388 393.021 61.2379 393.021 65.6011C393.021 69.921 389.523 73.4634 385.162 73.4634H34.4195C30.101 73.4634 26.5599 69.921 26.5599 65.6011C26.5599 61.2379 30.101 57.7388 34.4195 57.7388Z" fill="#922033"/>
<path fill-rule="evenodd" clip-rule="evenodd" d="M34.4195 283.974H385.162C389.48 283.974 393.021 287.517 393.021 291.837C393.021 296.157 389.523 299.699 385.162 299.699H34.4195C30.101 299.699 26.5599 296.157 26.5599 291.837C26.5599 287.517 30.101 283.974 34.4195 283.974Z" fill="#922033"/>
<path d="M352.601 108.325H178.525V113.898H352.601V108.325Z" fill="#A6A9AB"/>
<path d="M352.601 124.05H248.138V129.579H352.601V124.05Z" fill="#A6A9AB"/>
<path d="M290.804 139.774H176.409V145.304H290.804V139.774Z" fill="#A6A9AB"/>
<path d="M352.601 139.774H319.91V145.304H352.601V139.774Z" fill="#A6A9AB"/>
<path d="M215.448 124.05H197.008V129.579H215.448V124.05Z" fill="#A6A9AB"/>
<path d="M290.588 165.651C290.113 165.651 289.725 165.262 289.725 164.787C289.681 164.312 290.07 163.923 290.545 163.923H290.847H291.15H291.452H291.754H292.057H292.186C292.661 163.923 293.05 164.312 293.05 164.787C293.007 165.262 292.661 165.651 292.186 165.651H292.057H291.754H291.452H291.193H290.891H290.588ZM286.011 164.225C286.486 164.182 286.918 164.528 286.961 165.003C287.004 165.478 286.659 165.867 286.184 165.91H286.097L285.795 165.953L285.493 165.997L285.19 166.04L284.888 166.083L284.586 166.126H284.499C284.067 166.213 283.636 165.867 283.549 165.435C283.506 164.96 283.808 164.528 284.283 164.485H284.37L284.672 164.441L284.974 164.398L285.277 164.355L285.579 164.312L285.881 164.269H286.011V164.225ZM279.576 165.305C280.008 165.219 280.483 165.478 280.613 165.953C280.742 166.385 280.44 166.861 280.008 166.99L279.706 167.033L279.404 167.077L279.144 167.163L278.842 167.206L278.54 167.293L278.324 167.336C277.892 167.465 277.417 167.206 277.288 166.731C277.158 166.256 277.417 165.781 277.892 165.694L278.108 165.651L278.41 165.565L278.713 165.521L279.015 165.435L279.317 165.392L279.576 165.305ZM273.012 167.379C273.444 167.206 273.962 167.422 274.092 167.854C274.265 168.286 274.049 168.805 273.617 168.977H273.574L273.271 169.107L273.012 169.237L272.753 169.366L272.494 169.453L272.235 169.582L272.105 169.625C271.674 169.841 271.155 169.625 270.983 169.193C270.81 168.805 271.026 168.286 271.415 168.07L271.587 168.027L271.846 167.897L272.149 167.768L272.408 167.638L272.71 167.509L272.969 167.379H273.012ZM266.751 170.317C267.139 170.101 267.701 170.23 267.917 170.619C268.132 171.008 267.96 171.569 267.614 171.785H267.571L267.312 171.915L267.096 172.045L266.837 172.174L266.621 172.304L266.405 172.433L266.232 172.563C265.844 172.779 265.282 172.693 265.066 172.261C264.807 171.872 264.937 171.353 265.326 171.094L265.498 170.965L265.757 170.835L266.016 170.705L266.276 170.576L266.491 170.446L266.751 170.317ZM261.007 174.161C261.396 173.859 261.914 173.945 262.216 174.291C262.519 174.637 262.432 175.198 262.087 175.457L261.914 175.587L261.698 175.76L261.482 175.933L261.266 176.105L261.05 176.278L260.834 176.494C260.489 176.797 259.971 176.71 259.625 176.365C259.323 176.019 259.409 175.501 259.755 175.155H259.798L260.014 174.982L260.23 174.766L260.446 174.593L260.662 174.421L260.878 174.205L261.007 174.161ZM255.868 178.74C256.17 178.395 256.732 178.395 257.077 178.697C257.38 179.043 257.423 179.561 257.077 179.907L256.991 179.993L256.818 180.209L256.602 180.425L256.386 180.641L256.17 180.857L255.998 181.073L255.911 181.16C255.609 181.505 255.048 181.505 254.702 181.203C254.357 180.9 254.314 180.339 254.659 179.993L254.745 179.864L254.961 179.648L255.177 179.432L255.393 179.216L255.609 179L255.825 178.784L255.868 178.74ZM251.377 183.968C251.636 183.579 252.198 183.536 252.543 183.795C252.932 184.097 253.018 184.616 252.716 185.004L252.543 185.22L252.413 185.436L252.241 185.652L252.068 185.868L251.938 186.084L251.809 186.257C251.55 186.646 251.032 186.776 250.643 186.473C250.254 186.214 250.168 185.696 250.427 185.264L250.557 185.091L250.729 184.832L250.902 184.616L251.075 184.4L251.247 184.184L251.377 183.968ZM244.683 229.975C244.511 229.543 244.727 229.068 245.159 228.895C245.59 228.765 246.109 228.938 246.238 229.413L246.281 229.629L246.411 229.889L246.497 230.191L246.627 230.45L246.713 230.709L246.843 230.969V231.012C247.015 231.444 246.8 231.919 246.368 232.092C245.979 232.265 245.461 232.049 245.288 231.617H245.245L245.159 231.314L245.029 231.055L244.899 230.753L244.77 230.45L244.683 230.191V229.975ZM247.447 236.282C247.231 235.893 247.404 235.332 247.793 235.159C248.181 234.943 248.743 235.073 248.916 235.505L249.002 235.634L249.131 235.893L249.261 236.153L249.391 236.369L249.52 236.628L249.65 236.844L249.693 236.887C249.909 237.276 249.779 237.837 249.391 238.053C249.002 238.269 248.484 238.14 248.268 237.751L248.225 237.708L248.095 237.449L247.965 237.189L247.836 236.973L247.706 236.714L247.577 236.455L247.447 236.282ZM251.118 242.157C250.816 241.768 250.902 241.25 251.291 240.948C251.679 240.688 252.198 240.775 252.5 241.164L252.543 241.25L252.716 241.466L252.888 241.682L253.018 241.898L253.191 242.114L253.364 242.33L253.45 242.416C253.752 242.805 253.666 243.324 253.32 243.626C252.932 243.928 252.413 243.842 252.111 243.496L252.068 243.41L251.852 243.194L251.679 242.978L251.507 242.719L251.334 242.503L251.161 242.287L251.118 242.157ZM255.523 247.428C255.22 247.082 255.22 246.564 255.566 246.218C255.868 245.916 256.43 245.916 256.775 246.218V246.261L256.991 246.477L257.207 246.693L257.423 246.909L257.639 247.082L257.855 247.298L257.984 247.471C258.33 247.773 258.33 248.335 258.027 248.68C257.725 248.983 257.164 249.026 256.818 248.68L256.646 248.551L256.43 248.335L256.214 248.119L255.998 247.903L255.782 247.687L255.523 247.428ZM260.662 252.05C260.316 251.748 260.273 251.229 260.532 250.84C260.834 250.452 261.353 250.408 261.741 250.711L261.871 250.84L262.087 251.013L262.303 251.186L262.519 251.359L262.734 251.488L262.95 251.661L262.994 251.704C263.382 252.007 263.469 252.525 263.21 252.914C262.95 253.303 262.432 253.389 262.044 253.087L262 253.044L261.784 252.871L261.569 252.698L261.353 252.525L261.137 252.352L260.921 252.18L260.662 252.05ZM266.405 255.938C265.973 255.722 265.844 255.16 266.103 254.772C266.319 254.383 266.88 254.21 267.269 254.469L267.355 254.512L267.571 254.642L267.83 254.772L268.046 254.901L268.305 255.031L268.521 255.16L268.651 255.204C269.039 255.42 269.212 255.938 268.996 256.327C268.78 256.715 268.262 256.931 267.83 256.672L267.701 256.629L267.442 256.499L267.182 256.37L266.923 256.24L266.664 256.111L266.448 255.981L266.405 255.938ZM272.58 258.962C272.149 258.789 271.933 258.271 272.105 257.839C272.278 257.407 272.796 257.191 273.185 257.363L273.228 257.407L273.487 257.536L273.746 257.623L274.049 257.752L274.308 257.839L274.567 257.968L274.74 258.011C275.172 258.141 275.387 258.659 275.258 259.091C275.128 259.523 274.61 259.783 274.178 259.61L274.006 259.567L273.746 259.48L273.444 259.351L273.142 259.221L272.883 259.091L272.58 258.962ZM279.144 261.079C278.713 260.949 278.41 260.474 278.54 260.042C278.669 259.567 279.144 259.264 279.576 259.394L279.663 259.437L279.965 259.48L280.224 259.567L280.526 259.61L280.829 259.653L281.131 259.696L281.217 259.739C281.692 259.826 281.995 260.258 281.908 260.733C281.822 261.208 281.347 261.511 280.915 261.424L280.785 261.381L280.483 261.338L280.181 261.251L279.879 261.208L279.576 261.165L279.274 261.079H279.144ZM285.968 262.245C285.493 262.202 285.147 261.77 285.19 261.295C285.233 260.819 285.622 260.517 286.097 260.517L286.356 260.56L286.659 260.603L286.961 260.647L287.263 260.69H287.565L287.781 260.733C288.256 260.776 288.602 261.165 288.559 261.64C288.515 262.115 288.127 262.461 287.652 262.418L287.436 262.375L287.134 262.331H286.831L286.529 262.288L286.227 262.245H285.968ZM292.834 262.461C292.359 262.504 291.97 262.115 291.97 261.64C291.97 261.165 292.316 260.776 292.791 260.776H293.05L293.352 260.733H293.654L293.957 260.69H294.259L294.432 260.647C294.907 260.603 295.295 260.949 295.339 261.424C295.382 261.899 295.036 262.288 294.561 262.331H294.389L294.086 262.375L293.784 262.418H293.482L293.179 262.461H292.834ZM299.743 261.727C299.268 261.813 298.836 261.511 298.75 261.035C298.664 260.56 298.966 260.128 299.441 260.042L299.657 259.999L299.959 259.955L300.262 259.912L300.564 259.869L300.866 259.826L301.082 259.783C301.557 259.696 301.989 259.955 302.118 260.431C302.205 260.906 301.903 261.338 301.471 261.467L301.212 261.511L300.909 261.597L300.607 261.64L300.305 261.683L300.002 261.727H299.743ZM306.394 260.042C305.962 260.171 305.487 259.955 305.357 259.523C305.228 259.091 305.444 258.573 305.876 258.443H305.919L306.178 258.314L306.48 258.227L306.739 258.141L307.041 258.055L307.301 257.925L307.43 257.882C307.862 257.752 308.38 257.925 308.51 258.4C308.682 258.832 308.467 259.351 307.992 259.523L307.862 259.567L307.56 259.653L307.301 259.783L306.998 259.869L306.696 259.955L306.394 260.085V260.042ZM312.828 257.407C312.396 257.623 311.878 257.45 311.705 257.018C311.489 256.586 311.662 256.067 312.094 255.895L312.137 255.852L312.396 255.722L312.612 255.592L312.871 255.463L313.13 255.333L313.346 255.204L313.476 255.16C313.908 254.944 314.426 255.074 314.642 255.463C314.858 255.851 314.685 256.413 314.296 256.629L314.167 256.715L313.908 256.845L313.649 256.975L313.39 257.104L313.13 257.234L312.871 257.363L312.828 257.407ZM318.744 253.908C318.356 254.21 317.838 254.08 317.578 253.692C317.319 253.303 317.406 252.784 317.794 252.525L318.01 252.352L318.226 252.223L318.442 252.05L318.658 251.877L318.874 251.748L319.09 251.618C319.479 251.316 319.997 251.402 320.256 251.791C320.558 252.18 320.472 252.698 320.083 252.957L319.867 253.087L319.651 253.26L319.435 253.432L319.263 253.605L319.004 253.778L318.744 253.908ZM324.186 249.631C323.84 249.933 323.322 249.933 322.976 249.588C322.674 249.285 322.674 248.724 323.02 248.378L323.149 248.248L323.365 248.076L323.581 247.86L323.797 247.644L324.013 247.428L324.229 247.255L324.272 247.212C324.617 246.909 325.136 246.909 325.481 247.255C325.783 247.557 325.783 248.119 325.481 248.464L325.438 248.508L325.222 248.724L325.006 248.94L324.79 249.156L324.574 249.372L324.358 249.588L324.186 249.631ZM328.936 244.62C328.634 245.008 328.072 245.008 327.727 244.749C327.381 244.447 327.295 243.928 327.597 243.54L327.64 243.496L327.813 243.28L327.986 243.064L328.159 242.848L328.331 242.632L328.504 242.416L328.59 242.287C328.893 241.898 329.411 241.855 329.8 242.157C330.188 242.416 330.231 242.978 329.929 243.324L329.843 243.453L329.67 243.669L329.454 243.885L329.281 244.101L329.109 244.317L328.936 244.62ZM332.952 239.047C332.736 239.436 332.175 239.565 331.786 239.306C331.397 239.09 331.268 238.529 331.527 238.14L331.656 237.924L331.786 237.665L331.916 237.449L332.045 237.233L332.175 236.973L332.304 236.757C332.52 236.369 333.038 236.239 333.427 236.455C333.816 236.671 333.988 237.233 333.729 237.621L333.6 237.837L333.47 238.097L333.341 238.313L333.211 238.572L333.082 238.831L332.952 239.047ZM336.148 232.913C335.975 233.301 335.457 233.517 335.025 233.345C334.593 233.129 334.42 232.653 334.593 232.221L334.679 232.005L334.809 231.746L334.938 231.487L335.025 231.228L335.154 230.969L335.284 230.666C335.457 230.234 335.932 230.018 336.364 230.191C336.795 230.321 337.055 230.839 336.882 231.271V231.314L336.752 231.573L336.623 231.876L336.493 232.135L336.364 232.437L336.234 232.697L336.148 232.913ZM338.48 226.389C338.35 226.865 337.875 227.124 337.443 226.994C337.011 226.865 336.752 226.389 336.839 225.957L336.882 225.741L336.968 225.439L337.011 225.137L337.098 224.877L337.141 224.575L337.184 224.316C337.314 223.841 337.789 223.582 338.22 223.668C338.696 223.798 338.955 224.273 338.868 224.705L338.782 225.007L338.739 225.309L338.652 225.612L338.609 225.914L338.523 226.217L338.48 226.389ZM339.818 219.607C339.775 220.082 339.3 220.385 338.868 220.342C338.393 220.298 338.091 219.866 338.134 219.391V219.348L338.177 219.046L338.22 218.743L338.264 218.441L338.307 218.138L338.35 217.836V217.75C338.393 217.274 338.825 216.972 339.3 216.972C339.775 217.015 340.121 217.447 340.077 217.879V218.009L340.034 218.311L339.991 218.614L339.948 218.916L339.905 219.218L339.861 219.521V219.607H339.818ZM340.25 212.738C340.25 213.214 339.861 213.602 339.386 213.602C338.911 213.602 338.523 213.214 338.523 212.738L338.48 212.695V212.393V212.09V211.788L338.436 211.486V211.183V211.14C338.393 210.665 338.739 210.276 339.214 210.233C339.689 210.19 340.077 210.578 340.121 211.054V211.14V211.442L340.164 211.745V212.047V212.35V212.652L340.25 212.738ZM339.689 205.87C339.732 206.345 339.43 206.734 338.955 206.82C338.523 206.863 338.091 206.561 338.005 206.086V206.043L337.961 205.74L337.918 205.438L337.875 205.135L337.832 204.833L337.789 204.531L337.745 204.401C337.659 203.969 337.961 203.494 338.436 203.407C338.911 203.321 339.343 203.623 339.43 204.099L339.473 204.228L339.516 204.531L339.559 204.833L339.602 205.135L339.646 205.438L339.689 205.74V205.87ZM338.177 199.087C338.307 199.563 338.048 200.038 337.616 200.167C337.184 200.297 336.666 200.038 336.579 199.563L336.536 199.39L336.45 199.087L336.364 198.828L336.277 198.526L336.191 198.267L336.104 197.964C335.932 197.532 336.148 197.014 336.623 196.884C337.098 196.755 337.573 196.971 337.702 197.403L337.745 197.446L337.832 197.705L337.918 198.007L338.005 198.31L338.091 198.612L338.177 198.915V199.087ZM335.759 192.651C335.975 193.083 335.759 193.601 335.37 193.774C334.938 193.99 334.42 193.817 334.248 193.385L334.161 193.169L334.032 192.953L333.902 192.694L333.773 192.435L333.643 192.176L333.513 191.916C333.297 191.484 333.47 190.966 333.859 190.793C334.291 190.577 334.809 190.75 334.982 191.182L335.111 191.441L335.241 191.7L335.37 192.003L335.5 192.262L335.629 192.521L335.759 192.651ZM332.391 186.603C332.65 187.035 332.52 187.51 332.175 187.769C331.743 188.028 331.225 187.899 331.009 187.553L330.922 187.424L330.75 187.208L330.62 186.992L330.447 186.732L330.318 186.516L330.145 186.3L330.102 186.257C329.843 185.868 329.929 185.35 330.318 185.091C330.706 184.832 331.225 184.918 331.527 185.307L331.57 185.35L331.743 185.609L331.916 185.825L332.045 186.041L332.218 186.3L332.347 186.516L332.391 186.603ZM328.288 181.073C328.59 181.419 328.547 181.98 328.202 182.283C327.856 182.585 327.338 182.542 326.993 182.196L326.949 182.153L326.733 181.937L326.561 181.721L326.345 181.505L326.172 181.289L325.956 181.073L325.827 180.944C325.524 180.598 325.524 180.08 325.87 179.734C326.215 179.432 326.733 179.432 327.079 179.777L327.209 179.907L327.424 180.123L327.64 180.339L327.813 180.555L328.029 180.771L328.288 181.073ZM323.408 176.149C323.754 176.451 323.797 177.013 323.495 177.358C323.192 177.704 322.631 177.747 322.286 177.445L322.113 177.272L321.897 177.099L321.681 176.926L321.465 176.71L321.249 176.537L321.033 176.365C320.688 176.062 320.645 175.544 320.904 175.155C321.206 174.809 321.767 174.766 322.113 175.025L322.329 175.198L322.545 175.414L322.761 175.587L322.976 175.803L323.192 175.976L323.408 176.149ZM317.924 171.958C318.313 172.217 318.399 172.736 318.183 173.168C317.924 173.557 317.406 173.686 316.974 173.384L316.844 173.297L316.628 173.168L316.412 173.038L316.197 172.909L315.937 172.736L315.722 172.606L315.635 172.563C315.246 172.347 315.117 171.785 315.333 171.397C315.592 170.965 316.11 170.878 316.499 171.094L316.585 171.137L316.844 171.267L317.06 171.397L317.319 171.569L317.535 171.699L317.794 171.872L317.924 171.958ZM311.878 168.632C312.31 168.805 312.483 169.323 312.31 169.755C312.094 170.187 311.619 170.36 311.187 170.144L311.101 170.101L310.842 169.971L310.583 169.841L310.323 169.712L310.064 169.582L309.805 169.453L309.676 169.409C309.244 169.237 309.028 168.718 309.201 168.286C309.417 167.854 309.892 167.638 310.323 167.811L310.453 167.897L310.755 168.027L311.014 168.157L311.274 168.286L311.576 168.416L311.835 168.545L311.878 168.632ZM305.444 166.169C305.876 166.299 306.135 166.774 306.005 167.206C305.876 167.638 305.4 167.897 304.969 167.768L304.925 167.725L304.58 167.638L304.321 167.595L304.019 167.509L303.716 167.422L303.457 167.379L303.328 167.336C302.853 167.206 302.594 166.731 302.723 166.299C302.853 165.824 303.328 165.565 303.759 165.694L303.889 165.737L304.191 165.781L304.494 165.867L304.796 165.953L305.098 166.04L305.4 166.126L305.444 166.169ZM298.707 164.614C299.182 164.657 299.484 165.133 299.441 165.565C299.355 165.997 298.923 166.342 298.448 166.256L298.275 166.213L297.973 166.169L297.671 166.126L297.368 166.083L297.066 166.04L296.764 165.997C296.289 165.953 295.986 165.521 296.03 165.046C296.073 164.571 296.505 164.225 296.98 164.269L297.282 164.312L297.584 164.355L297.886 164.398L298.189 164.441L298.491 164.485L298.707 164.614Z" fill="#808184"/>
<path d="M269.774 201.075C268.953 202.5 268.305 204.012 267.787 205.524C267.269 207.123 266.923 208.721 266.751 210.363C266.707 210.838 266.319 211.183 265.887 211.27V211.313L256.732 213.171L259.539 226.865L268.694 225.007C269.212 224.878 269.644 225.137 269.86 225.569C270.249 226.26 270.724 226.951 271.199 227.599C271.674 228.247 272.192 228.895 272.753 229.543C273.315 230.148 273.876 230.753 274.524 231.314C275.128 231.876 275.733 232.394 276.381 232.913C276.769 233.215 276.942 233.733 276.726 234.165L273.833 242.978L287.134 247.384L290.07 238.529C290.2 238.053 290.675 237.751 291.15 237.794C292.748 237.751 294.389 237.621 296.03 237.276C297.627 236.973 299.182 236.455 300.693 235.807C301.125 235.634 301.643 235.764 301.903 236.109V236.066L308.121 243.065L318.615 233.733L312.396 226.735C312.094 226.39 312.051 225.871 312.31 225.439C313.087 224.014 313.778 222.545 314.253 220.99C314.772 219.434 315.117 217.793 315.333 216.194C315.376 215.719 315.765 215.33 316.197 215.244L325.352 213.343L322.501 199.649L313.346 201.55C312.828 201.636 312.396 201.42 312.137 200.945C311.749 200.254 311.274 199.606 310.842 198.915C310.367 198.267 309.892 197.619 309.287 197.014C308.769 196.366 308.164 195.804 307.56 195.243C306.955 194.724 306.351 194.206 305.66 193.688C305.271 193.385 305.141 192.824 305.314 192.392L308.251 183.579L294.95 179.173L292.013 188.028C291.841 188.504 291.409 188.806 290.934 188.806C289.336 188.806 287.695 188.979 286.054 189.324C284.456 189.627 282.902 190.145 281.39 190.793C280.915 191.009 280.397 190.836 280.095 190.491L273.919 183.536L263.469 192.867L269.687 199.865C269.989 200.167 270.033 200.686 269.774 201.075ZM265.714 204.876C266.189 203.451 266.794 202.025 267.528 200.643L261.093 193.428C260.705 192.996 260.748 192.305 261.223 191.916L273.271 181.16C273.703 180.771 274.394 180.814 274.783 181.246L281.174 188.46C282.599 187.899 284.067 187.467 285.579 187.164C287.09 186.862 288.602 186.646 290.156 186.603L293.179 177.445C293.352 176.883 293.957 176.581 294.518 176.753L309.848 181.851C310.41 182.024 310.712 182.628 310.539 183.233L307.517 192.392C308.035 192.78 308.467 193.169 308.942 193.601C309.589 194.206 310.237 194.854 310.842 195.545C311.446 196.193 311.965 196.884 312.526 197.619C312.915 198.137 313.26 198.655 313.562 199.217L323.063 197.273C323.624 197.143 324.186 197.532 324.315 198.137L327.597 213.948C327.727 214.553 327.338 215.114 326.734 215.244L317.276 217.188C317.06 218.7 316.672 220.212 316.24 221.638C315.765 223.106 315.16 224.489 314.426 225.871L320.817 233.085C321.249 233.517 321.163 234.209 320.731 234.597L308.683 245.354C308.251 245.743 307.56 245.7 307.171 245.268L300.737 238.053C299.312 238.615 297.843 239.047 296.375 239.349C294.864 239.652 293.352 239.825 291.797 239.868L288.775 249.026C288.602 249.631 287.997 249.89 287.436 249.717L272.105 244.62C271.501 244.447 271.242 243.842 271.415 243.281L274.481 234.079C273.962 233.69 273.531 233.301 273.056 232.869C272.365 232.265 271.76 231.66 271.155 230.969C270.551 230.277 270.033 229.586 269.471 228.852C269.083 228.334 268.737 227.815 268.435 227.254L258.934 229.197C258.33 229.327 257.811 228.938 257.682 228.334L254.4 212.523C254.27 211.918 254.659 211.356 255.264 211.227L264.721 209.283C264.894 207.814 265.239 206.345 265.714 204.876Z" fill="#808184"/>
<path fill-rule="evenodd" clip-rule="evenodd" d="M290.934 208.894C293.352 208.851 295.339 210.751 295.339 213.214C295.382 215.633 293.482 217.62 291.063 217.62C288.645 217.663 286.659 215.762 286.615 213.343C286.572 210.924 288.472 208.937 290.934 208.894Z" fill="#808184"/>
<path d="M290.502 195.977C290.113 195.977 289.811 195.675 289.811 195.286C289.811 194.897 290.113 194.595 290.502 194.552H290.588H290.718H290.847H290.977H291.107H291.236H291.366H291.495H291.625L291.754 194.595H291.884H292.013H292.143H292.273C292.661 194.638 292.963 194.94 292.963 195.329C292.92 195.718 292.618 196.02 292.229 196.02H292.186L292.1 195.977H291.97H291.841H291.711H291.625H291.495H291.366H291.236H291.107H291.02H290.891H290.761H290.632H290.502ZM287.565 194.897C287.954 194.811 288.3 195.07 288.386 195.459C288.429 195.848 288.213 196.193 287.825 196.236L287.695 196.279L287.609 196.323L287.479 196.366H287.393L287.263 196.409L287.134 196.452L287.047 196.495H286.918L286.831 196.539L286.702 196.582L286.572 196.625L286.486 196.668L286.443 196.711C286.097 196.798 285.709 196.582 285.579 196.193C285.493 195.804 285.709 195.415 286.097 195.329L286.14 195.286L286.27 195.243L286.399 195.2L286.486 195.156L286.615 195.113L286.745 195.07L286.875 195.027H287.004L287.134 194.984L287.263 194.94L287.393 194.897L287.522 194.854H287.565V194.897ZM283.463 196.15C283.808 196.02 284.24 196.15 284.37 196.495C284.543 196.841 284.37 197.273 284.024 197.446H283.981L283.895 197.489L283.808 197.532L283.722 197.575L283.593 197.619L283.506 197.662L283.42 197.705L283.333 197.748L283.204 197.791L283.117 197.835L283.031 197.878L282.945 197.921L282.858 197.964L282.815 198.007C282.513 198.18 282.038 198.051 281.865 197.705C281.692 197.403 281.822 196.927 282.167 196.755L282.211 196.711L282.34 196.668L282.427 196.625L282.556 196.582L282.642 196.539L282.772 196.495L282.858 196.452L282.945 196.409L283.074 196.366L283.161 196.323L283.29 196.279L283.42 196.236L283.463 196.15ZM279.749 198.353C280.051 198.137 280.483 198.18 280.699 198.483C280.915 198.785 280.872 199.217 280.57 199.433L280.483 199.476L280.397 199.606L280.354 199.649L280.267 199.692L280.181 199.779L280.095 199.822L280.051 199.865L279.965 199.908L279.879 199.995L279.792 200.038L279.749 200.081L279.663 200.167L279.576 200.211C279.317 200.47 278.885 200.427 278.626 200.167C278.367 199.908 278.41 199.433 278.67 199.217V199.174L278.756 199.131L278.842 199.044L278.929 199.001L278.972 198.915L279.058 198.871L279.145 198.828L279.231 198.742L279.317 198.699L279.404 198.612L279.49 198.569L279.576 198.526L279.663 198.439L279.749 198.353ZM276.597 201.377C276.856 201.075 277.288 201.031 277.59 201.247C277.892 201.507 277.892 201.939 277.676 202.241L277.59 202.327L277.547 202.414L277.504 202.457L277.46 202.543L277.417 202.63L277.331 202.716L277.288 202.803L277.244 202.846L277.201 202.932L277.158 203.019L277.115 203.105L277.072 203.191L277.029 203.235C276.813 203.537 276.381 203.623 276.078 203.407C275.776 203.191 275.69 202.716 275.906 202.457L275.949 202.371L275.992 202.284L276.078 202.198L276.122 202.111L276.165 202.025L276.208 201.939L276.294 201.852L276.338 201.766L276.381 201.679L276.467 201.593L276.51 201.507L276.597 201.42V201.377ZM274.265 205.006C274.437 204.66 274.869 204.487 275.215 204.703C275.517 204.833 275.69 205.308 275.517 205.611L275.474 205.654L275.431 205.74L275.388 205.87L275.344 205.956L275.301 206.043L275.258 206.129L275.215 206.259L275.172 206.345L275.128 206.431L275.085 206.518L275.042 206.647L274.999 206.734L274.956 206.82V206.863C274.826 207.209 274.394 207.382 274.049 207.295C273.703 207.166 273.531 206.734 273.66 206.388V206.345L273.703 206.215L273.746 206.129L273.79 205.999L273.833 205.87L273.876 205.783L273.919 205.654L273.962 205.567L274.006 205.438L274.049 205.351L274.092 205.222L274.135 205.135L274.265 205.006ZM272.796 209.067C272.883 208.678 273.271 208.462 273.66 208.548C274.049 208.635 274.265 208.98 274.178 209.369L274.135 209.412V209.542L274.092 209.628L274.049 209.758L274.006 209.844V209.974L273.962 210.103L273.919 210.19V210.319L273.876 210.449L273.833 210.535V210.665L273.79 210.751C273.747 211.14 273.401 211.399 273.012 211.356C272.624 211.313 272.365 210.967 272.408 210.579L272.451 210.492L272.494 210.363V210.233L272.537 210.103L272.581 209.974V209.844L272.624 209.715L272.667 209.585L272.71 209.455V209.326L272.753 209.239L272.796 209.11V209.067ZM272.365 213.386C272.321 212.998 272.667 212.695 273.056 212.695C273.444 212.652 273.746 212.998 273.746 213.386V213.473V213.602V213.732V213.818V213.948L273.79 214.078V214.207V214.294V214.423V214.553L273.833 214.682V214.812V214.855C273.876 215.244 273.574 215.546 273.185 215.59C272.796 215.633 272.494 215.374 272.451 214.985V214.942L272.408 214.812V214.682V214.553V214.294L272.365 214.164V214.034V213.905V213.775V213.646V213.516V213.43V213.386ZM272.84 217.663C272.753 217.274 272.969 216.886 273.358 216.799C273.747 216.713 274.092 216.929 274.222 217.318L274.265 217.447V217.534L274.308 217.663L274.351 217.75L274.394 217.879L274.437 217.966L274.481 218.095L274.524 218.182L274.567 218.311L274.61 218.398L274.653 218.527L274.697 218.614V218.657C274.826 219.002 274.61 219.434 274.265 219.521C273.919 219.65 273.487 219.434 273.401 219.089L273.358 219.046L273.315 218.916L273.271 218.786L273.228 218.657L273.185 218.57L273.142 218.441L273.099 218.311L273.056 218.182L273.012 218.095L272.969 217.966L272.926 217.836L272.883 217.706L272.84 217.663ZM274.394 221.724C274.222 221.378 274.351 220.946 274.697 220.774C275.042 220.601 275.474 220.73 275.647 221.076L275.69 221.162L275.733 221.292L275.776 221.378L275.819 221.465L275.863 221.551L275.906 221.638L275.949 221.724L275.992 221.81L276.035 221.897L276.078 222.026L276.122 222.113L276.165 222.199L276.208 222.242C276.424 222.545 276.338 222.977 275.992 223.193C275.69 223.409 275.215 223.322 275.042 222.977L274.999 222.89L274.956 222.804L274.912 222.718L274.869 222.588L274.826 222.502L274.783 222.415L274.74 222.286L274.697 222.199L274.653 222.113L274.61 221.983L274.567 221.897L274.524 221.767L274.394 221.724ZM276.769 225.31C276.51 225.007 276.553 224.575 276.813 224.359C277.115 224.1 277.547 224.143 277.806 224.446L277.849 224.489L277.935 224.575L277.979 224.662L278.022 224.705L278.108 224.791L278.151 224.834L278.194 224.921L278.281 225.007L278.324 225.05L278.41 225.137L278.454 225.18L278.54 225.266L278.583 225.31L278.626 225.353C278.885 225.612 278.885 226.044 278.626 226.346C278.367 226.606 277.892 226.606 277.633 226.346L277.59 226.303L277.547 226.217L277.46 226.13L277.374 226.087L277.331 226.001L277.244 225.914L277.158 225.828L277.115 225.742L277.029 225.698L276.985 225.612L276.942 225.526L276.899 225.439L276.813 225.353L276.769 225.31ZM279.965 228.247C279.663 228.031 279.576 227.599 279.835 227.297C280.051 226.994 280.483 226.908 280.786 227.167L280.829 227.21L280.915 227.253L281.001 227.297L281.088 227.34L281.174 227.383L281.261 227.426L281.347 227.469L281.433 227.513L281.52 227.556L281.606 227.599L281.692 227.642L281.779 227.685L281.865 227.729C282.167 227.901 282.254 228.333 282.081 228.679C281.865 228.981 281.476 229.111 281.131 228.895L281.045 228.852L280.958 228.809L280.872 228.765L280.786 228.722L280.656 228.636L280.57 228.593L280.483 228.549L280.397 228.506L280.311 228.463L280.224 228.42L280.095 228.333L280.008 228.29L279.965 228.247ZM283.679 230.407C283.333 230.277 283.161 229.845 283.29 229.5C283.42 229.154 283.852 228.981 284.197 229.154H284.24L284.327 229.197L284.413 229.241L284.543 229.284L284.629 229.327L284.715 229.37L284.845 229.413L284.931 229.457L285.018 229.5L285.147 229.543L285.234 229.586L285.363 229.629L285.449 229.673H285.493C285.838 229.802 286.054 230.191 285.924 230.537C285.795 230.882 285.406 231.098 285.061 230.969H285.018L284.888 230.925L284.802 230.882L284.672 230.839L284.543 230.796L284.413 230.753L284.327 230.709L284.197 230.666L284.111 230.623L283.981 230.58L283.852 230.537L283.765 230.493L283.679 230.407ZM287.868 231.617C287.479 231.573 287.22 231.185 287.263 230.839C287.306 230.45 287.652 230.191 288.04 230.234L288.127 230.277H288.213L288.343 230.321H288.472L288.559 230.364H288.688L288.818 230.407H288.904L289.034 230.45H289.163L289.293 230.493H289.379H289.466C289.854 230.537 290.113 230.882 290.07 231.271C290.027 231.66 289.725 231.962 289.336 231.919L289.25 231.876H289.12L288.991 231.833H288.861L288.731 231.789H288.602L288.472 231.746H288.343L288.213 231.703H288.084L287.954 231.66H287.825L287.868 231.617ZM292.143 231.876C291.754 231.919 291.452 231.617 291.409 231.228C291.366 230.839 291.668 230.493 292.057 230.493H292.1L292.186 230.45H292.316H292.445L292.575 230.407H292.661H292.791L292.92 230.364H293.05L293.136 230.321H293.266H293.395L293.482 230.277L293.698 231.66L293.568 231.703H293.352L293.223 231.746H293.093L292.963 231.789H292.834H292.704L292.575 231.833H292.445H292.316L292.186 231.876H292.143ZM293.395 230.321L293.611 231.703C294 231.66 294.259 231.314 294.216 230.925C294.129 230.537 293.741 230.277 293.395 230.321ZM296.375 231.098C296.03 231.228 295.641 231.012 295.511 230.623C295.382 230.277 295.598 229.845 295.986 229.759L296.073 229.716L296.202 229.673L296.289 229.629L296.418 229.586L296.505 229.543L296.634 229.5L296.721 229.457L296.807 229.413L296.936 229.37L297.023 229.327L297.152 229.284L297.239 229.241H297.282C297.627 229.111 298.059 229.284 298.146 229.629C298.275 229.975 298.102 230.407 297.757 230.537H297.714L297.627 230.58L297.498 230.623L297.368 230.666L297.282 230.709L297.152 230.753L297.023 230.796L296.893 230.839L296.807 230.882L296.677 230.925L296.548 230.969L296.461 231.012L296.375 231.098ZM300.391 229.37C300.089 229.543 299.614 229.457 299.441 229.111C299.268 228.809 299.355 228.377 299.7 228.161L299.787 228.117L299.873 228.074L299.959 228.031L300.046 227.988L300.132 227.945L300.218 227.901L300.305 227.858L300.391 227.815L300.478 227.772L300.564 227.729L300.65 227.685L300.737 227.642L300.78 227.599C301.082 227.383 301.557 227.469 301.73 227.772C301.946 228.074 301.859 228.549 301.557 228.722L301.514 228.765L301.428 228.809L301.298 228.895L301.212 228.938L301.125 228.981L301.039 229.025L300.953 229.068L300.823 229.111L300.737 229.154L300.65 229.197L300.521 229.241L300.434 229.284L300.391 229.37ZM303.846 226.778C303.544 227.038 303.112 227.037 302.853 226.735C302.594 226.476 302.637 226.044 302.896 225.785L302.939 225.742L303.025 225.698L303.069 225.612L303.155 225.569L303.198 225.482L303.285 225.439L303.328 225.353L303.414 225.266L303.457 225.223L303.544 225.137L303.587 225.094L303.63 225.007L303.716 224.964L303.76 224.921C304.019 224.618 304.451 224.618 304.753 224.878C305.012 225.137 305.055 225.569 304.796 225.871L304.753 225.914L304.666 225.958L304.623 226.044L304.537 226.13L304.494 226.217L304.407 226.303L304.321 226.346L304.278 226.433L304.191 226.519L304.105 226.562L304.019 226.649L303.975 226.735L303.846 226.778ZM306.61 223.452C306.394 223.754 305.962 223.884 305.66 223.668C305.357 223.452 305.271 223.02 305.444 222.718L305.487 222.674L305.53 222.588L305.573 222.502L305.616 222.415L305.66 222.329L305.703 222.242L305.746 222.156L305.789 222.07L305.832 221.983L305.876 221.897L305.919 221.81L305.962 221.724L306.005 221.594C306.221 221.249 306.61 221.119 306.955 221.292C307.257 221.508 307.387 221.897 307.214 222.242L307.171 222.372L307.128 222.458L307.171 222.502L307.128 222.631L307.085 222.718L307.042 222.804L306.998 222.934L306.955 223.02L306.912 223.106L306.869 223.193L306.826 223.322L306.782 223.409L306.61 223.452ZM308.553 219.607C308.423 219.953 308.035 220.169 307.646 219.996C307.301 219.866 307.128 219.478 307.257 219.132V219.089L307.301 218.959L307.344 218.873L307.387 218.786L307.43 218.657L307.473 218.57L307.517 218.441L307.56 218.354L307.603 218.225L307.646 218.138L307.689 218.009L307.732 217.922V217.793L307.776 217.75C307.862 217.404 308.251 217.145 308.639 217.274C309.028 217.361 309.244 217.75 309.158 218.138L309.114 218.182L309.071 218.311L309.028 218.441L308.985 218.57L308.942 218.657L308.898 218.786L308.855 218.916L308.812 219.002L308.769 219.132L308.726 219.262L308.683 219.391L308.639 219.478L308.553 219.607ZM309.503 215.374C309.46 215.762 309.114 216.022 308.726 215.978C308.337 215.935 308.078 215.59 308.121 215.201V215.158L308.164 215.028V214.898L308.208 214.812V214.682V214.553V214.423L308.251 214.337V214.207V214.078V213.991L308.294 213.862C308.294 213.473 308.596 213.17 308.985 213.17C309.374 213.214 309.676 213.516 309.676 213.905V213.948V214.078V214.207L309.633 214.337V214.466V214.596V214.726L309.589 214.855V214.985V215.114L309.546 215.244V215.374H309.503ZM309.503 211.054C309.546 211.442 309.287 211.788 308.898 211.831C308.51 211.874 308.208 211.615 308.121 211.227V211.183L308.078 211.097V210.967L308.035 210.838V210.751L307.992 210.622V210.492L308.035 210.406V210.276L307.992 210.147L307.948 210.06L307.905 209.931V209.844C307.819 209.455 308.078 209.11 308.467 209.023C308.855 208.98 309.201 209.196 309.287 209.585V209.671L309.33 209.801L309.373 209.931V210.06L309.417 210.19L309.46 210.319V210.449L309.503 210.579V210.708L309.546 210.838V210.967L309.503 211.054ZM308.51 206.863C308.639 207.209 308.467 207.641 308.121 207.727C307.776 207.857 307.344 207.684 307.214 207.339L307.171 207.209L307.128 207.123L307.085 207.036L307.042 206.907L306.998 206.82L306.955 206.734L306.912 206.604L306.869 206.518L306.826 206.431L306.782 206.302L306.739 206.215L306.696 206.129L306.653 206.086C306.523 205.74 306.653 205.308 306.998 205.135C307.344 205.006 307.776 205.135 307.905 205.481L307.948 205.524L307.992 205.654L308.035 205.74L308.078 205.87L308.121 205.956L308.164 206.086L308.208 206.215L308.251 206.302L308.294 206.431L308.337 206.518L308.38 206.647L308.423 206.777L308.51 206.863ZM306.567 202.975C306.782 203.278 306.696 203.753 306.351 203.926C306.048 204.142 305.573 204.055 305.401 203.71L305.357 203.667L305.314 203.58L305.271 203.494L305.228 203.407L305.185 203.321L305.141 203.235L305.098 203.148L305.055 203.062L305.012 202.975L304.969 202.932L304.926 202.846L304.882 202.759L304.839 202.673H304.796C304.58 202.371 304.623 201.939 304.926 201.723C305.228 201.507 305.703 201.507 305.919 201.852L305.962 201.939L306.048 202.025L306.091 202.111L306.135 202.198L306.221 202.284L306.264 202.371L306.307 202.5L306.351 202.587L306.394 202.673L306.48 202.759L306.523 202.846L306.567 202.932V202.975ZM303.803 199.692C304.062 199.951 304.105 200.383 303.846 200.643C303.587 200.945 303.155 200.945 302.853 200.686L302.766 200.643L302.723 200.556L302.637 200.513L302.55 200.427L302.507 200.383L302.421 200.34L302.334 200.297L302.291 200.211L302.205 200.167L302.119 200.124L302.075 200.038L301.989 199.995L301.946 199.951C301.644 199.735 301.6 199.26 301.816 199.001C302.032 198.699 302.507 198.655 302.81 198.871L302.853 198.915L302.939 199.001L303.025 199.044L303.112 199.131L303.198 199.174L303.241 199.26L303.328 199.303L303.414 199.39L303.5 199.433L303.587 199.519L303.673 199.563L303.716 199.649L303.803 199.692ZM300.305 197.1C300.65 197.273 300.78 197.705 300.564 198.051C300.348 198.353 299.959 198.483 299.614 198.31L299.571 198.267L299.484 198.223L299.398 198.18L299.312 198.137L299.225 198.094L299.096 198.051L299.009 198.007L298.923 197.964L298.837 197.921L298.75 197.878L298.664 197.835L298.534 197.791L298.448 197.748L298.405 197.705C298.059 197.575 297.886 197.143 298.102 196.798C298.275 196.452 298.707 196.279 299.052 196.495H299.096L299.182 196.539L299.312 196.582L299.398 196.625L299.527 196.668L299.614 196.711L299.7 196.755L299.83 196.798L299.916 196.841L300.046 196.884L300.132 196.927L300.218 196.971L300.305 197.1ZM296.375 195.372C296.721 195.502 296.936 195.891 296.85 196.236C296.721 196.625 296.332 196.841 295.986 196.711H295.943L295.857 196.668L295.727 196.625L295.641 196.582H295.511L295.425 196.539L295.295 196.495L295.209 196.452H295.08L294.993 196.409L294.864 196.366L294.734 196.323L294.648 196.279C294.259 196.193 294.043 195.848 294.129 195.459C294.173 195.07 294.561 194.854 294.95 194.94H294.993L295.123 194.984L295.252 195.027H295.382L295.468 195.07L295.598 195.113L295.727 195.156L295.857 195.2L295.986 195.243L296.116 195.286L296.202 195.329L296.332 195.372H296.375Z" fill="#808184"/>
<path d="M217.175 186.041C216.268 186.905 215.491 187.856 214.757 188.849C214.066 189.886 213.461 190.966 212.943 192.089C212.814 192.435 212.468 192.607 212.123 192.607L205.084 192.003L204.177 202.543L211.216 203.148C211.561 203.191 211.863 203.451 211.95 203.796C212.079 204.401 212.252 204.963 212.468 205.567C212.684 206.129 212.9 206.69 213.202 207.295C213.461 207.857 213.764 208.418 214.066 208.937C214.368 209.455 214.757 209.974 215.102 210.492C215.318 210.794 215.318 211.183 215.059 211.486L211.043 217.231L219.723 223.279L223.739 217.49C223.955 217.188 224.344 217.058 224.689 217.188C225.898 217.534 227.108 217.793 228.317 217.879C229.526 217.966 230.821 217.966 232.031 217.836C232.376 217.793 232.721 217.966 232.894 218.311L235.917 224.661L245.504 220.169L242.481 213.775C242.352 213.473 242.438 213.041 242.697 212.825C243.604 211.961 244.381 211.01 245.115 210.017C245.806 208.98 246.454 207.9 246.929 206.777C247.059 206.431 247.404 206.259 247.75 206.259L254.789 206.863L255.695 196.366L248.656 195.761C248.268 195.718 247.966 195.459 247.922 195.113C247.793 194.508 247.62 193.947 247.404 193.342C247.188 192.78 246.972 192.219 246.713 191.614C246.454 191.052 246.152 190.491 245.849 189.972C245.547 189.454 245.159 188.936 244.813 188.417C244.597 188.115 244.597 187.726 244.813 187.424L248.829 181.678L240.149 175.63L236.09 181.419C235.874 181.721 235.485 181.851 235.14 181.721C233.974 181.376 232.721 181.116 231.512 181.03C230.26 180.944 229.051 180.944 227.798 181.073C227.41 181.116 227.108 180.9 226.935 180.555L223.955 174.205L214.368 178.697L217.391 185.091C217.521 185.436 217.434 185.825 217.175 186.041ZM213.418 187.942C214.109 186.992 214.843 186.128 215.664 185.307L212.554 178.697C212.382 178.265 212.554 177.79 212.943 177.617L223.998 172.433C224.387 172.217 224.862 172.39 225.078 172.822L228.187 179.432C229.31 179.302 230.519 179.302 231.642 179.432C232.765 179.518 233.931 179.734 235.053 180.036L239.242 174.075C239.501 173.686 240.02 173.6 240.365 173.859L250.384 180.814C250.729 181.073 250.816 181.592 250.6 181.937L246.411 187.899C246.67 188.288 246.929 188.676 247.188 189.108C247.49 189.713 247.836 190.275 248.138 190.923C248.441 191.528 248.7 192.132 248.916 192.78C249.088 193.212 249.218 193.687 249.347 194.119L256.602 194.767C257.077 194.811 257.38 195.199 257.38 195.631L256.343 207.77C256.3 208.202 255.955 208.548 255.48 208.505L248.225 207.9C247.706 208.937 247.145 209.93 246.497 210.924C245.806 211.874 245.072 212.738 244.252 213.559L247.361 220.169C247.577 220.558 247.404 221.076 246.972 221.249L235.917 226.433C235.485 226.649 235.053 226.476 234.838 226.044L231.728 219.434C230.605 219.521 229.396 219.521 228.317 219.434C227.151 219.348 225.985 219.132 224.905 218.83L220.716 224.791C220.5 225.18 219.939 225.266 219.593 225.007L209.575 218.052C209.186 217.793 209.1 217.274 209.359 216.929L213.504 210.967C213.245 210.578 212.986 210.19 212.727 209.758C212.382 209.153 212.036 208.591 211.777 207.943C211.475 207.338 211.259 206.734 211 206.086C210.827 205.654 210.698 205.179 210.568 204.747L203.313 204.099C202.881 204.055 202.536 203.667 202.536 203.235L203.572 191.095C203.615 190.663 204.004 190.318 204.436 190.361L211.691 190.966C212.209 189.886 212.77 188.892 213.418 187.942Z" fill="#808184"/>
<path fill-rule="evenodd" clip-rule="evenodd" d="M230.821 196.28C232.592 196.755 233.585 198.569 233.11 200.34C232.592 202.112 230.778 203.105 229.051 202.63C227.323 202.155 226.287 200.34 226.762 198.569C227.237 196.798 229.051 195.804 230.821 196.28Z" fill="#808184"/>
<path d="M229.612 187.078C229.353 187.078 229.094 186.862 229.094 186.603C229.094 186.3 229.31 186.084 229.612 186.084H229.655H229.742H229.828H229.914H230.001H230.087H230.174H230.26H230.346H230.39H230.476L230.562 186.127H230.649H230.735C231.037 186.127 231.253 186.343 231.21 186.646C231.21 186.905 230.994 187.121 230.692 187.121H230.605L230.562 187.078H230.476H230.39H230.303H230.217H230.13H230.044H230.001H229.871H229.785H229.742H229.655H229.612ZM227.496 186.343C227.755 186.3 228.014 186.473 228.101 186.732C228.144 186.991 227.971 187.251 227.712 187.337L227.669 187.38H227.583L227.496 187.423H227.453L227.367 187.467H227.323L227.237 187.51H227.194L227.108 187.553L227.021 187.596H226.978L226.892 187.639H226.848C226.589 187.726 226.33 187.553 226.244 187.294C226.201 187.035 226.33 186.775 226.589 186.689H226.632L226.719 186.646H226.762L226.848 186.603L226.935 186.559H227.021L227.064 186.516L227.151 186.473H227.237L227.323 186.43H227.367L227.453 186.387H227.496V186.343ZM224.56 187.251C224.776 187.121 225.078 187.251 225.207 187.467C225.337 187.726 225.207 188.028 224.991 188.158H224.948L224.905 188.201L224.819 188.244L224.776 188.287L224.732 188.331L224.646 188.374L224.603 188.417L224.56 188.46L224.516 188.503L224.43 188.547L224.387 188.59L224.344 188.633L224.257 188.676H224.214C223.998 188.806 223.696 188.719 223.523 188.46C223.394 188.244 223.48 187.942 223.739 187.769H223.782L223.869 187.726L223.912 187.683L223.998 187.639L224.041 187.596L224.128 187.553L224.171 187.51L224.257 187.467L224.301 187.423L224.387 187.38L224.43 187.337L224.516 187.294L224.56 187.251ZM221.882 188.806C222.098 188.633 222.4 188.676 222.573 188.892C222.703 189.108 222.703 189.411 222.487 189.583L222.444 189.627L222.4 189.67L222.357 189.713L222.314 189.756L222.271 189.799L222.228 189.843L222.185 189.886L222.141 189.929L222.098 189.972L222.055 190.015L222.012 190.059L221.969 190.102L221.925 190.145C221.709 190.361 221.407 190.318 221.234 190.102C221.062 189.886 221.105 189.583 221.278 189.411L221.321 189.367L221.364 189.324L221.407 189.281L221.45 189.238L221.494 189.195L221.537 189.151L221.58 189.108L221.623 189.065L221.709 189.022L221.753 188.979L221.796 188.935L221.839 188.892L221.882 188.806ZM219.68 190.966C219.853 190.75 220.155 190.707 220.371 190.879C220.587 191.052 220.587 191.398 220.414 191.571L220.371 191.614L220.328 191.657L220.284 191.7L220.241 191.743L220.198 191.787L220.155 191.83L220.112 191.873L220.068 191.916L220.025 191.959L219.982 192.003L219.939 192.262L219.896 192.305L219.853 192.348C219.723 192.564 219.378 192.651 219.162 192.478C218.946 192.348 218.903 192.003 219.032 191.787L219.075 191.743L219.118 191.7L219.162 191.614L219.205 191.571L219.248 191.527L219.291 191.484L219.334 191.441L219.378 191.398L219.421 191.311L219.464 191.268L219.507 191.225L219.55 191.182L219.68 190.966ZM217.952 193.515C218.082 193.299 218.384 193.169 218.643 193.299C218.859 193.428 218.989 193.687 218.859 193.947L218.816 193.99L218.773 194.033L218.73 194.076L218.687 194.119L218.643 194.206L218.6 194.249L218.557 194.292L218.514 194.379L218.471 194.422L218.428 194.465L218.384 194.551L218.341 194.595L218.298 194.681H218.255C218.168 194.94 217.866 195.07 217.607 194.983C217.391 194.854 217.218 194.594 217.348 194.335V194.292L217.391 194.206L217.434 194.163L217.477 194.076L217.521 194.033L217.564 193.947L217.607 193.903L217.65 193.817L217.693 193.774L217.737 193.687L217.78 193.644L217.823 193.558L217.866 193.515H217.952ZM216.959 196.452C217.002 196.193 217.262 196.02 217.564 196.063C217.823 196.106 217.996 196.366 217.952 196.668V196.711L217.909 196.754V196.841L217.866 196.884L217.823 196.97V197.057L217.78 197.1V197.186V197.23L217.737 197.316V197.402L217.693 197.446V197.532C217.65 197.791 217.391 197.964 217.132 197.921C216.83 197.878 216.657 197.618 216.7 197.359L216.743 197.273V197.186L216.787 197.1V197.057L216.83 196.97V196.884L216.873 196.798V196.711L216.916 196.668V196.582L216.959 196.495V196.452ZM216.614 199.519C216.614 199.26 216.83 199.001 217.132 199.001C217.434 199.001 217.65 199.217 217.65 199.519V199.562V199.606L217.693 199.692V199.778V199.865V199.908V199.994V200.081V200.124V200.21L217.737 200.297V200.34V200.383C217.78 200.686 217.564 200.902 217.262 200.945C217.002 200.945 216.743 200.772 216.743 200.47V200.426V200.34L216.7 200.254V200.167V200.124V200.038V199.951V199.865V199.778L216.657 199.692V199.606V199.519H216.614ZM216.959 202.586C216.916 202.327 217.089 202.025 217.348 201.982C217.607 201.938 217.866 202.111 217.952 202.37L217.996 202.414L218.039 202.5V202.543L218.082 202.63L218.125 202.716V202.759L218.168 202.846L218.212 202.889V202.975L218.255 203.018L218.298 203.105L218.341 203.148V203.191C218.428 203.45 218.298 203.753 218.039 203.839C217.78 203.882 217.521 203.796 217.434 203.537L217.391 203.494L217.348 203.407L217.305 203.321L217.262 203.278L217.218 203.191V203.062L217.175 203.018L217.132 202.932L217.089 202.846V202.759L217.046 202.716L216.959 202.586ZM218.039 205.524C217.909 205.265 217.996 204.962 218.255 204.833C218.514 204.703 218.816 204.79 218.946 205.049V205.092L218.989 205.135L219.032 205.178L219.075 205.265L219.118 205.308L219.162 205.351L219.205 205.394L219.248 205.438L219.291 205.524L219.334 205.567L219.378 205.61L219.421 205.654L219.464 205.697L219.507 205.74C219.637 205.956 219.593 206.258 219.378 206.431C219.162 206.561 218.816 206.518 218.687 206.302L218.643 206.258L218.6 206.215L218.557 206.129L218.514 206.086L218.471 206.042L218.428 205.956L218.384 205.913L218.341 205.826L218.298 205.783L218.255 205.697L218.212 205.654L218.168 205.61L218.039 205.524ZM219.766 208.073C219.593 207.857 219.593 207.554 219.809 207.382C220.025 207.209 220.328 207.252 220.5 207.425L220.544 207.468L220.587 207.511L220.63 207.554L220.673 207.598L220.716 207.641L220.759 207.684L220.803 207.727L220.846 207.77L220.889 207.814L220.932 207.857L220.975 207.9L221.019 207.943L221.062 207.986L221.105 208.03C221.278 208.202 221.278 208.548 221.105 208.721C220.889 208.893 220.587 208.893 220.414 208.721L220.371 208.678L220.328 208.634L220.284 208.591L220.241 208.548L220.198 208.505L220.155 208.462L220.112 208.418L220.068 208.375L220.025 208.332L219.982 208.289L219.939 208.246L219.896 208.202L219.766 208.073ZM222.055 210.189C221.839 210.017 221.796 209.714 221.925 209.498C222.098 209.282 222.4 209.239 222.616 209.369L222.66 209.412L222.703 209.455L222.746 209.498L222.789 209.541L222.832 209.585L222.875 209.628L222.919 209.671L222.962 209.714L223.005 209.757L223.091 209.801L223.135 209.844L223.178 209.887L223.221 209.93C223.437 210.06 223.523 210.362 223.351 210.621C223.221 210.837 222.919 210.924 222.66 210.794L222.616 210.751L222.53 210.708L222.487 210.665L222.444 210.621L222.357 210.578L222.314 210.535L222.271 210.492L222.228 210.449L222.141 210.405L222.098 210.362L222.055 210.319L222.012 210.276L222.055 210.189ZM224.732 211.701C224.473 211.615 224.344 211.313 224.473 211.053C224.56 210.794 224.862 210.665 225.121 210.794H225.164L225.207 210.837L225.294 210.881L225.337 210.924L225.38 210.967L225.467 211.01L225.51 211.053L225.553 211.097L225.639 211.14L225.682 211.183L225.769 211.226L225.812 211.269H225.898V211.313C226.157 211.399 226.287 211.658 226.201 211.917C226.114 212.177 225.855 212.306 225.596 212.22H225.553L225.467 212.177L225.38 212.133L225.337 212.09L225.251 212.047L225.207 212.004L225.121 211.961L225.035 211.917L224.991 211.874L224.905 211.831L224.862 211.788L224.776 211.745L224.732 211.701ZM227.712 212.609C227.453 212.565 227.28 212.306 227.323 212.047C227.367 211.745 227.626 211.572 227.928 211.658H227.971H228.058L228.101 211.701H228.187H228.273L228.317 211.745H228.403L228.489 211.788H228.533H228.619H228.705L228.749 211.831H228.792C229.051 211.874 229.267 212.09 229.224 212.349C229.224 212.652 228.964 212.825 228.705 212.825L228.662 212.781H228.576H228.489H228.403L228.317 212.738H228.273L228.187 212.695H228.101H228.014L227.928 212.652H227.842L227.798 212.609H227.712ZM230.778 212.781C230.519 212.781 230.26 212.565 230.26 212.306C230.26 212.004 230.476 211.788 230.735 211.788H230.778H230.821L230.908 211.745H230.994H231.037H231.124L231.21 211.701H231.253H231.34H231.426L231.469 211.658H231.555H231.642L231.771 212.609H231.728L231.642 212.652H231.599H231.512L231.426 212.695H231.34H231.253L231.167 212.738H231.08H230.994H230.951H230.865L230.778 212.781ZM231.685 211.701L231.815 212.652C232.074 212.609 232.246 212.349 232.203 212.09C232.203 211.831 231.944 211.615 231.685 211.701ZM233.801 212.22C233.542 212.306 233.283 212.177 233.196 211.917C233.153 211.658 233.283 211.356 233.542 211.313V211.269H233.585L233.671 211.226L233.715 211.183L233.801 211.14H233.844L233.931 211.097L233.974 211.053L234.06 211.01L234.103 210.967L234.147 210.924L234.233 210.881L234.276 210.837H234.319C234.578 210.708 234.881 210.881 234.967 211.097C235.097 211.356 234.967 211.658 234.708 211.788H234.665L234.622 211.831L234.535 211.874L234.492 211.917L234.406 211.961L234.319 212.004L234.276 212.047L234.19 212.09L234.103 212.133H234.06L233.974 212.177L233.887 212.22H233.801ZM236.651 210.967C236.435 211.097 236.133 211.01 235.96 210.794C235.831 210.578 235.917 210.233 236.133 210.103L236.176 210.06L236.263 210.017L236.306 209.973L236.349 209.93L236.392 209.887L236.435 209.844L236.478 209.801L236.565 209.757L236.608 209.714L236.651 209.671L236.694 209.628L236.738 209.585L236.781 209.541C236.997 209.412 237.299 209.455 237.472 209.671C237.644 209.887 237.601 210.233 237.342 210.362L237.299 210.405L237.256 210.449L237.213 210.492L237.126 210.535L237.083 210.578L237.04 210.621L236.954 210.665L236.91 210.708L236.867 210.751L236.781 210.794L236.738 210.837L236.694 210.881L236.651 210.967ZM239.156 209.109C238.94 209.325 238.638 209.325 238.465 209.109C238.249 208.893 238.292 208.591 238.465 208.418L238.508 208.375L238.551 208.332L238.594 208.289L238.638 208.246L238.681 208.202L238.724 208.159L238.767 208.116L238.81 208.073L238.854 208.03L238.897 207.986L238.94 207.943L238.983 207.9L239.026 207.857L239.07 207.814C239.242 207.598 239.588 207.598 239.76 207.77C239.976 207.943 239.976 208.289 239.804 208.462L239.76 208.505L239.717 208.548L239.674 208.591L239.631 208.634L239.588 208.678L239.545 208.721L239.501 208.764L239.458 208.807L239.415 208.85L239.372 208.893L239.329 208.937L239.285 208.98L239.156 209.109ZM241.142 206.734C240.97 206.95 240.667 207.036 240.451 206.863C240.235 206.734 240.149 206.431 240.322 206.172L240.365 206.129L240.408 206.086L240.451 206.042L240.495 205.999L240.538 205.956L240.581 205.913L240.624 205.826L240.667 205.783L240.711 205.74L240.754 205.697L240.797 205.654L240.84 205.567L240.883 205.524C241.013 205.308 241.315 205.222 241.574 205.308C241.79 205.438 241.876 205.74 241.79 205.999V206.042L241.747 206.086L241.704 206.129L241.661 206.215L241.617 206.258L241.574 206.345L241.531 206.388L241.488 206.431L241.445 206.518L241.401 206.561L241.358 206.604L241.315 206.69L241.142 206.734ZM242.524 203.969C242.438 204.228 242.136 204.358 241.876 204.271C241.617 204.185 241.488 203.882 241.574 203.623L241.617 203.537L241.661 203.494L241.704 203.407L241.747 203.364V203.278L241.79 203.234L241.833 203.148L241.876 203.105V203.062L241.92 202.975L241.963 202.932L242.006 202.846V202.802C242.049 202.543 242.352 202.414 242.611 202.457C242.87 202.543 242.999 202.802 242.956 203.062L242.913 203.105V203.191L242.87 203.278L242.827 203.321L242.783 203.407L242.74 203.494L242.697 203.537V203.623L242.654 203.71L242.611 203.753L242.567 203.839L242.524 203.926V203.969ZM243.215 200.988C243.172 201.247 242.956 201.463 242.654 201.42C242.395 201.377 242.179 201.161 242.222 200.858V200.815L242.265 200.729V200.686V200.599V200.556L242.308 200.47V200.383V200.297V200.254V200.167V200.081L242.352 200.038V199.994C242.352 199.692 242.567 199.476 242.87 199.476C243.172 199.519 243.388 199.692 243.388 199.994V200.038H243.258V200.124V200.21V200.297V200.383V200.426L243.215 200.513V200.599V200.686V200.772L243.172 200.858V200.988H243.215ZM243.215 197.878C243.258 198.18 243.042 198.396 242.783 198.439C242.524 198.482 242.265 198.31 242.222 198.007V197.964V197.878L242.179 197.791V197.705L242.136 197.662V197.575V197.489L242.092 197.446V197.359L242.049 197.316V197.23L242.006 197.143V197.1C241.963 196.841 242.136 196.582 242.395 196.495C242.697 196.452 242.956 196.625 242.999 196.884L243.042 196.927V197.014L243.086 197.1V197.143L243.129 197.23V197.316L243.172 197.402V197.489L243.215 197.575V197.618V197.705V197.878ZM242.481 194.897C242.611 195.113 242.438 195.415 242.179 195.502C241.92 195.631 241.661 195.458 241.531 195.199L241.488 195.156V195.07L241.445 195.027L241.401 194.94L241.358 194.897L241.315 194.854L241.272 194.767L241.229 194.724L241.186 194.638L241.142 194.595L241.099 194.551L241.056 194.465L241.013 194.422C240.883 194.206 241.013 193.86 241.229 193.774C241.488 193.644 241.79 193.731 241.92 193.99L241.963 194.033L242.006 194.119L242.049 194.163L242.092 194.249L242.136 194.335L242.179 194.379L242.222 194.465L242.265 194.508L242.308 194.595L242.352 194.638L242.395 194.724L242.438 194.811L242.481 194.897ZM241.099 192.089C241.229 192.305 241.186 192.651 240.97 192.78C240.754 192.91 240.451 192.867 240.279 192.651L240.235 192.607L240.192 192.564L240.149 192.521L240.106 192.478L240.063 192.435L240.02 192.391L239.976 192.348L239.933 192.305L239.89 192.262L239.847 192.219L239.804 192.132L239.76 192.089L239.717 192.003C239.545 191.787 239.588 191.484 239.76 191.311C239.976 191.139 240.279 191.182 240.451 191.355V191.398L240.495 191.441L240.538 191.484L240.581 191.527L240.624 191.571L240.667 191.657L240.711 191.7L240.754 191.743L240.797 191.787L240.84 191.83L240.883 191.916L240.926 191.959L240.97 192.003L241.099 192.089ZM239.113 189.713C239.329 189.929 239.329 190.231 239.156 190.404C238.94 190.62 238.638 190.62 238.465 190.447H238.422L238.379 190.404L238.335 190.361L238.292 190.318L238.249 190.275L238.206 190.231L238.163 190.188L238.119 190.145L238.076 190.102L238.033 190.059L237.99 190.015L237.947 189.972L237.904 189.929L237.86 189.886C237.644 189.713 237.644 189.367 237.774 189.195C237.947 188.979 238.292 188.935 238.465 189.108L238.508 189.151L238.551 189.195L238.594 189.238L238.638 189.281L238.681 189.324L238.724 189.367L238.767 189.411L238.854 189.454L238.897 189.497L238.94 189.54L238.983 189.583L239.026 189.627L239.113 189.713ZM236.608 187.899C236.824 188.028 236.91 188.331 236.781 188.59C236.651 188.849 236.349 188.892 236.09 188.806L236.047 188.763L236.003 188.719L235.96 188.676L235.917 188.633L235.831 188.59L235.788 188.547L235.744 188.503L235.701 188.46L235.615 188.417L235.572 188.374L235.528 188.331L235.442 188.287L235.399 188.244L235.356 188.201C235.14 188.071 235.01 187.812 235.14 187.553C235.269 187.294 235.572 187.207 235.831 187.337H235.874L235.917 187.38L236.003 187.423L236.047 187.467L236.133 187.51L236.176 187.553L236.263 187.596L236.306 187.639L236.349 187.683L236.435 187.726L236.478 187.769L236.565 187.812L236.608 187.899ZM233.801 186.646C234.06 186.732 234.19 186.991 234.147 187.251C234.06 187.51 233.801 187.639 233.542 187.596H233.499L233.412 187.553L233.369 187.51L233.283 187.467H233.24L233.153 187.423L233.11 187.38H233.024L232.981 187.337H232.894L232.851 187.294L232.765 187.251H232.721H232.678C232.419 187.207 232.246 186.948 232.29 186.646C232.333 186.387 232.592 186.214 232.894 186.257L232.937 186.3H233.024L233.067 186.343H233.153L233.24 186.387L233.326 186.43H233.369L233.456 186.473L233.542 186.516L233.628 186.559H233.671L233.758 186.603L233.801 186.646Z" fill="#808184"/>
<path fill-rule="evenodd" clip-rule="evenodd" d="M83.3903 194.249H105.587H127.784V229.284H105.587H83.3903V194.249Z" fill="#F9BF92"/>
<path fill-rule="evenodd" clip-rule="evenodd" d="M105.587 210.881C84.729 210.665 67.1962 193.126 61.8413 169.28C61.6686 169.323 61.4959 169.323 61.3231 169.323C57.5661 169.323 53.3772 165.003 51.9953 159.69C50.5702 154.376 52.5135 150.056 56.2706 150.056C57.5661 150.056 58.9048 150.575 60.1571 151.482C61.1072 121.112 81.0583 96.8776 105.63 96.5752C130.159 96.8776 150.11 121.112 151.06 151.482C152.312 150.618 153.651 150.056 154.947 150.056C158.704 150.056 160.647 154.376 159.222 159.69C157.84 165.003 153.651 169.323 149.894 169.323C149.721 169.323 149.549 169.323 149.376 169.28C143.935 193.169 126.402 210.665 105.587 210.881Z" fill="#F9D4B4"/>
<path fill-rule="evenodd" clip-rule="evenodd" d="M72.4646 217.145L101.355 321.299V351.711L105.587 336.505L109.819 351.711V321.299L138.709 217.145L127.784 216.238L105.587 225.871L83.3902 216.238L72.4646 217.145Z" fill="#E2E2E2"/>
<path fill-rule="evenodd" clip-rule="evenodd" d="M105.587 354.26H183.534C183.534 354.26 194.198 294.617 185.521 258.055C183.021 247.522 177.186 231.617 177.186 231.617L138.709 217.145L105.587 333.438L72.4646 217.145L33.9443 231.617C33.9443 231.617 28.1086 247.521 25.6098 258.055C16.9358 294.618 27.6394 354.26 27.6394 354.26H105.587Z" fill="#0077E4"/>
<path fill-rule="evenodd" clip-rule="evenodd" d="M105.587 225.871L95.6113 235.98L100.837 248.465L96.8205 304.494L105.587 333.438L114.31 304.494L110.294 248.465L115.562 235.98L105.587 225.871Z" fill="#0077E4"/>
<path fill-rule="evenodd" clip-rule="evenodd" d="M157.926 224.359L134.823 277.408L105.587 333.438L72.4646 217.145L53.2045 224.359L76.3512 277.408L105.587 333.438L138.709 217.145L157.926 224.359Z" fill="#922033"/>
<path fill-rule="evenodd" clip-rule="evenodd" d="M65.9437 142.28L105.716 145.175L145.532 142.28C149.505 141.978 152.787 144.44 152.787 147.767C152.787 151.093 149.505 153.469 145.532 153.858C119.579 156.493 93.0634 156.536 65.9437 153.858C61.9708 153.469 58.6888 151.093 58.6888 147.767C58.6456 144.44 61.9276 141.978 65.9437 142.28Z" fill="#0077E4"/>
<path fill-rule="evenodd" clip-rule="evenodd" d="M63.2663 131.61L105.716 136.146L148.21 131.61C152.485 131.135 155.983 135.023 155.983 140.207C155.983 145.391 152.485 149.149 148.21 149.797C120.529 153.944 92.243 154.03 63.2663 149.797C58.9911 149.192 55.4932 145.391 55.4932 140.207C55.4932 135.023 58.9911 131.135 63.2663 131.61Z" fill="#FAC74A"/>
<path fill-rule="evenodd" clip-rule="evenodd" d="M154.385 134.807C151.362 107.764 130.72 86.8552 105.716 86.8552C80.7128 86.8552 60.0707 107.764 57.0479 134.807C89.4792 142.971 121.954 143.058 154.385 134.807Z" fill="#E7B947"/>
<path fill-rule="evenodd" clip-rule="evenodd" d="M88.486 108.541C91.0771 108.541 93.1931 106.425 93.1931 103.833V93.6808C93.1931 91.0889 91.0771 88.9721 88.486 88.9721C85.895 88.9721 83.7789 91.0889 83.7789 93.6808V103.833C83.7789 106.425 85.9381 108.541 88.486 108.541ZM122.947 108.541C125.538 108.541 127.654 106.425 127.654 103.833V93.6808C127.654 91.0889 125.538 88.9721 122.947 88.9721C120.356 88.9721 118.24 91.0889 118.24 93.6808V103.833C118.24 106.425 120.356 108.541 122.947 108.541ZM105.717 110.961C108.308 110.961 110.424 108.844 110.424 106.252V87.1577C110.424 84.5658 108.308 82.449 105.717 82.449C103.125 82.449 101.053 84.5658 101.053 87.1577V106.252C101.009 108.887 103.125 110.961 105.717 110.961Z" fill="#FAC74A"/>
<path fill-rule="evenodd" clip-rule="evenodd" d="M417.161 147.637V187.51L419.709 188.979L427.482 193.471V202.457V211.486L418.845 215.633V214.38V203.321L411.893 197.921L404.94 203.321V214.38V215.633L396.346 211.486V202.457V193.471L404.12 188.979L406.624 187.51V147.637L404.12 146.168L396.346 141.675V132.69V123.704L404.94 119.514V120.767V131.826L411.893 137.226L418.845 131.826V120.767V119.514L427.482 123.704V132.69V141.675L419.709 146.168L417.161 147.637Z" fill="#0077E4"/>
<path d="M385.68 170.576H376.223V220.73H385.68V170.576Z" fill="#D2D2D2"/>
<path fill-rule="evenodd" clip-rule="evenodd" d="M374.841 212.349H374.97H386.846H386.975C389.61 212.349 390.56 215.028 390.776 218.224L393.151 253.518C393.367 256.758 391.38 259.394 388.746 259.394H382.312H379.548H373.07C370.436 259.394 368.493 256.758 368.665 253.518L371.041 218.224C371.256 215.028 372.207 212.349 374.841 212.349Z" fill="#0077E4"/>
<path fill-rule="evenodd" clip-rule="evenodd" d="M387.666 150.056L390.56 170.144L385.766 173.772L380.93 177.488L376.136 173.772L371.3 170.144L374.193 150.056H387.666Z" fill="#D2D2D2"/>
<path fill-rule="evenodd" clip-rule="evenodd" d="M172.091 359.66V274.341C172.091 270.842 174.941 267.99 178.439 267.99H239.933C243.431 267.99 246.281 270.842 246.281 274.341V359.66C246.281 363.159 243.431 366.01 239.933 366.01H178.439C174.941 366.01 172.091 363.159 172.091 359.66Z" fill="#FFE5AF"/>
<path fill-rule="evenodd" clip-rule="evenodd" d="M167.772 356.16V270.712C167.772 267.256 170.623 264.405 174.077 264.405H235.054C238.508 264.405 241.358 267.256 241.358 270.712V356.16C241.358 359.616 238.508 362.468 235.054 362.468H174.077C170.623 362.468 167.772 359.616 167.772 356.16Z" fill="#FEC878"/>
<path fill-rule="evenodd" clip-rule="evenodd" d="M169.672 350.847C169.672 349.119 171.098 347.693 172.825 347.693C174.552 347.693 175.977 349.119 175.977 350.847C175.977 352.575 174.552 354.001 172.825 354.001C171.098 354.001 169.672 352.575 169.672 350.847Z" fill="#686868"/>
<path fill-rule="evenodd" clip-rule="evenodd" d="M162.158 350.761C162.158 349.465 163.238 348.385 164.534 348.385H171.054C172.35 348.385 173.386 349.465 173.386 350.761C173.386 352.057 172.35 353.093 171.054 353.093H164.534C163.238 353.093 162.158 352.057 162.158 350.761Z" fill="white"/>
<path fill-rule="evenodd" clip-rule="evenodd" d="M169.672 338.362C169.672 336.634 171.098 335.252 172.825 335.252C174.552 335.252 175.977 336.678 175.977 338.362C175.977 340.134 174.552 341.516 172.825 341.516C171.098 341.516 169.672 340.134 169.672 338.362Z" fill="#686868"/>
<path fill-rule="evenodd" clip-rule="evenodd" d="M162.158 338.276C162.158 336.98 163.238 335.943 164.534 335.943H171.054C172.35 335.943 173.386 336.98 173.386 338.276C173.386 339.572 172.35 340.609 171.054 340.609H164.534C163.238 340.609 162.158 339.572 162.158 338.276Z" fill="white"/>
<path fill-rule="evenodd" clip-rule="evenodd" d="M169.672 325.921C169.672 324.149 171.098 322.767 172.825 322.767C174.552 322.767 175.977 324.193 175.977 325.921C175.977 327.649 174.552 329.074 172.825 329.074C171.098 329.074 169.672 327.649 169.672 325.921Z" fill="#686868"/>
<path fill-rule="evenodd" clip-rule="evenodd" d="M162.158 325.791C162.158 324.495 163.238 323.458 164.534 323.458H171.054C172.35 323.458 173.386 324.495 173.386 325.791C173.386 327.087 172.35 328.167 171.054 328.167H164.534C163.238 328.167 162.158 327.087 162.158 325.791Z" fill="white"/>
<path fill-rule="evenodd" clip-rule="evenodd" d="M169.672 313.436C169.672 311.708 171.098 310.282 172.825 310.282C174.552 310.282 175.977 311.708 175.977 313.436C175.977 315.164 174.552 316.59 172.825 316.59C171.098 316.59 169.672 315.164 169.672 313.436Z" fill="#686868"/>
<path fill-rule="evenodd" clip-rule="evenodd" d="M162.158 313.35C162.158 312.011 163.238 310.974 164.534 310.974H171.054C172.35 310.974 173.386 312.011 173.386 313.35C173.386 314.646 172.35 315.683 171.054 315.683H164.534C163.238 315.683 162.158 314.646 162.158 313.35Z" fill="white"/>
<path fill-rule="evenodd" clip-rule="evenodd" d="M169.672 300.952C169.672 299.224 171.098 297.798 172.825 297.798C174.552 297.798 175.977 299.224 175.977 300.952C175.977 302.723 174.552 304.105 172.825 304.105C171.098 304.148 169.672 302.723 169.672 300.952Z" fill="#686868"/>
<path fill-rule="evenodd" clip-rule="evenodd" d="M162.158 300.865C162.158 299.569 163.238 298.532 164.534 298.532H171.054C172.35 298.532 173.386 299.569 173.386 300.865C173.386 302.161 172.35 303.198 171.054 303.198H164.534C163.238 303.241 162.158 302.161 162.158 300.865Z" fill="white"/>
<path fill-rule="evenodd" clip-rule="evenodd" d="M169.672 288.51C169.672 286.782 171.098 285.356 172.825 285.356C174.552 285.356 175.977 286.782 175.977 288.51C175.977 290.281 174.552 291.664 172.825 291.664C171.098 291.664 169.672 290.238 169.672 288.51Z" fill="#686868"/>
<path fill-rule="evenodd" clip-rule="evenodd" d="M162.158 288.424C162.158 287.128 163.238 286.091 164.534 286.091H171.054C172.35 286.091 173.386 287.128 173.386 288.424C173.386 289.72 172.35 290.756 171.054 290.756H164.534C163.238 290.756 162.158 289.676 162.158 288.424Z" fill="white"/>
<path fill-rule="evenodd" clip-rule="evenodd" d="M169.672 276.069C169.672 274.297 171.098 272.915 172.825 272.915C174.552 272.915 175.977 274.341 175.977 276.069C175.977 277.797 174.552 279.222 172.825 279.222C171.098 279.179 169.672 277.797 169.672 276.069Z" fill="#686868"/>
<path fill-rule="evenodd" clip-rule="evenodd" d="M162.158 275.939C162.158 274.643 163.238 273.606 164.534 273.606H171.054C172.35 273.606 173.386 274.643 173.386 275.939C173.386 277.278 172.35 278.315 171.054 278.315H164.534C163.238 278.315 162.158 277.235 162.158 275.939Z" fill="white"/>
<path fill-rule="evenodd" clip-rule="evenodd" d="M186.083 276.501H225.596C227.367 276.501 228.835 277.926 228.835 279.741V293.953C228.835 295.725 227.367 297.193 225.596 297.193H186.083C184.312 297.193 182.844 295.725 182.844 293.953V279.741C182.887 277.926 184.355 276.501 186.083 276.501Z" fill="white"/>
<path d="M207.717 20.0688C208.926 20.0688 209.876 21.1056 209.876 22.3584C209.876 23.6112 208.926 24.6048 207.717 24.6048H205.256C204.046 24.6048 203.096 23.6112 203.096 22.3584C203.096 21.1056 204.046 20.0688 205.256 20.0688H207.717ZM192.991 20.0688C194.2 20.0688 195.107 21.1056 195.107 22.3584C195.107 23.6112 194.157 24.6048 192.991 24.6048H188.673C187.464 24.6048 186.514 23.6112 186.514 22.3584C186.514 21.1056 187.464 20.0688 188.673 20.0688H192.991ZM175.761 20.0688C176.927 20.0688 177.877 21.1056 177.877 22.3584C177.877 23.6112 176.927 24.6048 175.761 24.6048H171.442C170.233 24.6048 169.283 23.6112 169.283 22.3584C169.283 21.1056 170.233 20.0688 171.442 20.0688H175.761ZM158.53 20.0688C159.739 20.0688 160.689 21.1056 160.689 22.3584C160.689 23.6112 159.739 24.6048 158.53 24.6048H154.212C153.046 24.6048 152.096 23.6112 152.096 22.3584C152.096 21.1056 153.046 20.0688 154.212 20.0688H158.53ZM141.3 20.0688C142.509 20.0688 143.459 21.1056 143.459 22.3584C143.459 23.6112 142.509 24.6048 141.3 24.6048H136.981C135.772 24.6048 134.822 23.6112 134.822 22.3584C134.822 21.1056 135.772 20.0688 136.981 20.0688H141.3ZM124.112 20.0688C125.278 20.0688 126.228 21.1056 126.228 22.3584C126.228 23.6112 125.278 24.6048 124.112 24.6048H119.794C118.585 24.6048 117.635 23.6112 117.635 22.3584C117.635 21.1056 118.585 20.0688 119.794 20.0688H124.112ZM106.839 20.0688C108.048 20.0688 108.998 21.1056 108.998 22.3584C108.998 23.6112 108.048 24.6048 106.839 24.6048H102.52C101.354 24.6048 100.404 23.6112 100.404 22.3584C100.404 21.1056 101.354 20.0688 102.52 20.0688H106.839ZM89.6514 20.0688C90.8605 20.0688 91.8106 21.1056 91.8106 22.3584C91.8106 23.6112 90.8605 24.6048 89.6514 24.6048H85.3329C84.1238 24.6048 83.1737 23.6112 83.1737 22.3584C83.1737 21.1056 84.1238 20.0688 85.3329 20.0688H89.6514ZM72.4209 20.0688C73.5868 20.0688 74.5369 21.1056 74.5369 22.3584C74.5369 23.6112 73.5868 24.6048 72.4209 24.6048H68.1024C66.8933 24.6048 65.9432 23.6112 65.9432 22.3584C65.9432 21.1056 66.8933 20.0688 68.1024 20.0688H72.4209ZM55.1903 20.0688C56.3995 20.0688 57.3496 21.1056 57.3496 22.3584C57.3496 23.6112 56.3995 24.6048 55.1903 24.6048H50.8719C49.706 24.6048 48.7559 23.6112 48.7559 22.3584C48.7559 21.1056 49.706 20.0688 50.8719 20.0688H55.1903ZM37.9598 20.0688C39.169 20.0688 40.1191 21.1056 40.1191 22.3584C40.1191 23.6112 39.169 24.6048 37.9598 24.6048H33.6414C32.4323 24.6048 31.5254 23.6112 31.5254 22.3584C31.5254 21.1056 32.4754 20.0688 33.6414 20.0688H37.9598ZM20.2975 20.7168C21.4635 20.4576 22.6294 21.2352 22.8885 22.4448C23.1476 23.6544 22.4135 24.9072 21.2475 25.1664H21.2044L21.0748 25.2096L20.9453 25.2528L20.8157 25.296L20.6862 25.3392L20.5566 25.3824L20.427 25.4256L20.2975 25.4688L20.1679 25.512L20.0384 25.5552L19.9088 25.5984L19.7793 25.6416L19.6497 25.6848L19.5202 25.728L19.3906 25.7712L19.2611 25.8144L19.1315 25.8576L19.002 25.9008L18.8724 25.944L18.7429 25.9872L18.6133 26.0304L18.4838 26.0736L18.3542 26.1168L18.2246 26.16L18.0951 26.2032L17.9655 26.2464L17.836 26.2896L17.7064 26.3328L17.5769 26.376L17.4473 26.4192L17.3178 26.4624C16.2382 26.9808 14.9858 26.4192 14.5108 25.296C14.0358 24.1296 14.554 22.7904 15.6336 22.3152H15.6768L15.8063 22.2288L15.9359 22.1856L16.0654 22.1424L16.195 22.0992L16.3245 22.056L16.4541 22.0128L16.5837 21.9696L16.7132 21.9264L16.8428 21.8832L16.9723 21.84L17.1019 21.7968L17.2314 21.7536L17.361 21.7104L17.4905 21.6672L17.6201 21.624L17.7496 21.5808L17.8792 21.5376L18.0519 21.4944L18.1815 21.4512L18.311 21.408L18.4406 21.3648L18.5701 21.3216L18.6997 21.2784L18.8724 21.2352L19.002 21.192L19.1315 21.1488L19.2611 21.1056L19.3906 21.0624L19.5634 21.0192L20.2975 20.7168ZM5.01027 31.4303C5.70122 30.3935 7.03993 30.1343 7.98998 30.8687C8.98322 31.5599 9.19914 32.9855 8.50819 34.0223L8.46501 34.1087L8.42183 34.2383L8.33546 34.3247L8.29227 34.4543L8.20591 34.5839L8.16272 34.7135L8.07635 34.8431L8.03317 34.9727L7.90362 35.0159L7.81725 35.1455L7.77406 35.2751L7.73088 35.4047L7.6877 35.5343L7.60133 35.6639L7.55814 35.7935L7.51496 35.9231L7.47177 36.0527L7.42859 36.1823L7.38541 36.3118L7.29904 36.4415L7.25585 36.571L7.21267 36.7006L7.16949 36.8302L7.1263 36.9598L7.08312 37.0894L7.03993 37.219L6.99675 37.3486L6.95357 37.4782L6.91038 37.6078L6.8672 37.7374L6.82401 37.867C6.3058 38.9902 5.05346 39.4654 3.97385 38.947C2.89424 38.4286 2.41922 37.0894 2.93743 35.9663L2.98061 35.8367L3.0238 35.7071L3.06698 35.5775L3.11017 35.4479L3.19654 35.3183L3.23972 35.1887L3.28291 35.0591L3.36927 34.9295L3.41246 34.7999L3.49883 34.6703L3.54201 34.5407L3.62838 34.4111L3.67156 34.2815L3.75793 34.1519L3.8443 34.0223L3.88748 33.8927L3.97385 33.7631L4.06022 33.6335L4.1034 33.5039L4.18977 33.3743L4.27614 33.2447L4.36251 33.1151L4.40569 32.9855L4.49207 32.8559L4.57843 32.7263L4.6648 32.5967L4.75117 32.4671L4.83753 32.3375L4.92391 32.2079L5.01027 32.0783V31.4303ZM0.303193 49.9629C0.303193 48.7101 1.25325 47.6733 2.4624 47.6733C3.62838 47.6733 4.57843 48.7101 4.57843 49.9629V54.4988C4.57843 55.7516 3.62838 56.7452 2.4624 56.7452C1.25325 56.7452 0.303193 55.7516 0.303193 54.4988V49.9629ZM0.303193 68.1067C0.303193 66.8539 1.25325 65.8171 2.4624 65.8171C3.62838 65.8171 4.57843 66.8539 4.57843 68.1067V72.6426C4.57843 73.8954 3.62838 74.889 2.4624 74.889C1.25325 74.889 0.303193 73.8954 0.303193 72.6426V68.1067ZM0.303193 86.2504C0.303193 84.9977 1.25325 83.9609 2.4624 83.9609C3.62838 83.9609 4.57843 84.9977 4.57843 86.2504V90.7864C4.57843 92.0392 3.62838 93.0327 2.4624 93.0327C1.25325 93.0327 0.303193 92.0392 0.303193 90.7864V86.2504ZM0.303193 104.437C0.303193 103.185 1.25325 102.148 2.4624 102.148C3.62838 102.148 4.57843 103.185 4.57843 104.437V108.973C4.57843 110.226 3.62838 111.22 2.4624 111.22C1.25325 111.22 0.303193 110.226 0.303193 108.973V104.437ZM0.303193 122.581C0.303193 121.328 1.25325 120.292 2.4624 120.292C3.62838 120.292 4.57843 121.328 4.57843 122.581V127.117C4.57843 128.37 3.62838 129.364 2.4624 129.364C1.25325 129.364 0.303193 128.37 0.303193 127.117V122.581ZM0.303193 140.725C0.303193 139.472 1.25325 138.435 2.4624 138.435C3.62838 138.435 4.57843 139.472 4.57843 140.725V145.261C4.57843 146.514 3.62838 147.507 2.4624 147.507C1.25325 147.507 0.303193 146.514 0.303193 145.261V140.725ZM0.303193 158.869C0.303193 157.616 1.25325 156.579 2.4624 156.579C3.62838 156.579 4.57843 157.616 4.57843 158.869V163.405C4.57843 164.657 3.62838 165.651 2.4624 165.651C1.25325 165.651 0.303193 164.657 0.303193 163.405V158.869ZM0.303193 177.056C0.303193 175.803 1.25325 174.766 2.4624 174.766C3.62838 174.766 4.57843 175.803 4.57843 177.056V179.432V179.561V179.691V179.82V179.95L4.62161 180.08V180.209V180.339V180.468V180.598L4.6648 180.728V180.857V180.987L4.70799 181.116V181.246C4.83754 182.499 3.93067 183.579 2.76469 183.708C1.59872 183.838 0.519112 182.888 0.432744 181.678L0.38956 181.548V181.462L0.346377 181.289V181.116V180.987L0.303193 180.814V180.598V180.425V180.252L0.26001 180.08V179.95V179.777V179.604V179.432V177.056H0.303193ZM5.44212 195.502C4.70799 194.508 4.9239 193.083 5.83077 192.305C6.78083 191.528 8.16272 191.744 8.85367 192.737L8.89686 192.78L8.98322 192.91L9.06959 192.996L9.11278 193.126L9.19914 193.256L9.28551 193.342L9.3287 193.472L9.41506 193.558L9.50143 193.688L9.5878 193.774L9.67417 193.904L9.71735 193.99L9.80372 194.12L9.89009 194.206L9.97646 194.292L10.0628 194.422L10.1492 194.508L10.2356 194.638L10.3219 194.724L10.4083 194.811L10.4947 194.897L10.581 195.027L10.6674 195.113L10.7538 195.199L10.8401 195.286L10.9265 195.415L11.0129 195.502L11.0992 195.588L11.1856 195.675L11.3152 195.761L11.4015 195.847L11.4447 195.891C12.3084 196.755 12.3948 198.18 11.5743 199.131C10.7538 200.038 9.41506 200.124 8.55138 199.26L8.50819 199.217L8.37865 199.131L8.29227 199.001L8.16272 198.871L8.03317 198.742L7.90362 198.655L7.81725 198.526L7.6877 198.396L7.55814 198.267L7.47177 198.137L7.34222 198.007L7.21267 197.878L7.1263 197.748L6.99675 197.619L6.91038 197.489L6.78082 197.359L6.69446 197.23L6.5649 197.1L6.47854 196.971L6.34898 196.841L6.26262 196.711L6.17625 196.582L6.04669 196.452L5.96033 196.323L5.87396 196.193L5.74441 196.063L5.65804 195.934L5.57167 195.804L5.4853 195.675L5.35575 195.545L5.26938 195.415L5.44212 195.502ZM19.8225 205.74C18.6565 205.524 17.8792 204.315 18.0951 203.062C18.311 201.852 19.4338 201.031 20.5998 201.247L20.643 201.291L20.7725 201.334H20.9021L21.0316 201.377L21.1612 201.42L21.2907 201.463H21.4203L21.5498 201.507L21.6794 201.55H21.8089L21.9385 201.593H22.068L22.1976 201.636H22.3271L22.4567 201.679H22.5863L22.7158 201.723H22.8454L22.9749 201.766H23.1045H23.234H23.3636L23.4931 201.809H23.6227H23.7522H23.8818H24.0113H24.1409H24.2704H24.4C25.6091 201.809 26.5592 202.846 26.5592 204.099C26.5592 205.351 25.6091 206.345 24.4 206.345H24.3136H24.1409H24.0113H23.8386H23.709H23.5363H23.4068L23.234 206.302H23.0181H22.8454L22.6726 206.259H22.5431L22.3703 206.215H22.2408L22.1112 206.172H21.9385L21.8089 206.129L21.6362 206.086H21.5066L21.3339 206.043L21.2044 205.999H21.0748L20.9021 205.956L20.7725 205.913L20.5998 205.87L20.4702 205.827L20.3407 205.783L20.1679 205.74H19.8225Z" fill="#0077E4"/>
<path d="M417.247 231.228C417.247 230.104 416.297 229.197 415.131 229.197C413.965 229.197 413.015 230.104 413.015 231.228V235.288C413.015 236.412 413.965 237.319 415.131 237.319C416.297 237.319 417.247 236.412 417.247 235.288V231.228ZM417.247 247.427C417.247 246.304 416.297 245.397 415.131 245.397C413.965 245.397 413.015 246.304 413.015 247.427V251.488C413.015 252.611 413.965 253.519 415.131 253.519C416.297 253.519 417.247 252.611 417.247 251.488V247.427ZM417.247 263.627C417.247 262.504 416.297 261.597 415.131 261.597C413.965 261.597 413.015 262.504 413.015 263.627V267.688C413.015 268.811 413.965 269.718 415.131 269.718C416.297 269.718 417.247 268.811 417.247 267.688V263.627ZM417.247 279.87C417.247 278.747 416.297 277.84 415.131 277.84C413.965 277.84 413.015 278.747 413.015 279.87V283.931C413.015 285.054 413.965 285.961 415.131 285.961C416.297 285.961 417.247 285.054 417.247 283.931V279.87ZM417.247 296.07C417.247 294.947 416.297 294.04 415.131 294.04C413.965 294.04 413.015 294.947 413.015 296.07V300.131C413.015 301.254 413.965 302.161 415.131 302.161C416.297 302.161 417.247 301.254 417.247 300.131V296.07ZM416.643 312.659C416.902 311.579 416.168 310.499 415.002 310.239C413.879 310.023 412.713 310.671 412.497 311.751V311.795L412.454 311.924L412.411 312.054L412.368 312.183L412.324 312.313L412.281 312.443L412.238 312.572L412.195 312.702L412.152 312.831L412.109 312.961L412.065 313.091L412.022 313.177L411.979 313.307L411.936 313.436L411.893 313.566L411.849 313.695L411.806 313.825L411.763 313.955L411.72 314.084L411.677 314.214L411.634 314.343L411.59 314.473L411.547 314.603L411.504 314.732L411.461 314.862L411.418 314.991L411.374 315.078L411.331 315.207L411.288 315.337L411.245 315.467L411.202 315.596V315.553C410.727 316.59 411.245 317.799 412.324 318.231C413.404 318.663 414.656 318.188 415.131 317.195L415.175 317.065L415.218 316.935L415.261 316.806L415.304 316.676L415.347 316.547L415.391 316.417L415.434 316.287L415.477 316.158L415.52 316.028L415.563 315.899L415.606 315.769L415.65 315.639L415.693 315.51L415.736 315.38L415.779 315.251L415.822 315.121L415.866 314.991L415.909 314.862L415.952 314.732L415.995 314.603L416.038 314.473L416.081 314.343L416.125 314.214L416.168 314.084L416.211 313.955L416.254 313.825L416.297 313.695L416.341 313.566L416.384 313.436L416.643 312.659ZM406.581 327.087C407.531 326.439 407.747 325.143 407.099 324.236C406.408 323.329 405.113 323.113 404.163 323.718L404.076 323.761L403.947 323.847L403.86 323.891L403.731 323.934L403.644 324.02L403.515 324.063L403.385 324.107L403.299 324.15L403.169 324.236L403.083 324.279L402.954 324.323L402.824 324.366L402.694 324.409L402.608 324.452L402.478 324.495L402.349 324.539L402.219 324.582L402.133 324.625L402.003 324.668L401.874 324.711L401.744 324.755L401.658 324.798L401.528 324.841L401.399 324.884L401.269 324.927L401.14 324.971L401.01 325.014L400.881 325.057L400.794 325.1L400.665 325.143L400.535 325.187C399.499 325.662 399.024 326.871 399.499 327.865C399.974 328.902 401.269 329.334 402.306 328.858L402.435 328.815L402.565 328.772L402.694 328.729L402.824 328.686L402.954 328.642L403.083 328.556L403.213 328.513L403.342 328.47L403.472 328.383L403.601 328.34L403.731 328.297L403.86 328.21L403.99 328.167L404.119 328.124L404.249 328.038L404.379 327.994L404.508 327.908L404.638 327.865L404.767 327.778L404.897 327.735L405.026 327.649L405.156 327.562L405.285 327.519L405.415 327.433L405.545 327.346L405.674 327.303L405.804 327.217L405.933 327.13L406.063 327.044L406.192 326.958L406.581 327.087ZM389.178 331.494C390.344 331.494 391.294 330.586 391.294 329.463C391.294 328.34 390.344 327.433 389.178 327.433H384.903C383.737 327.433 382.743 328.34 382.743 329.463C382.743 330.586 383.693 331.494 384.903 331.494H389.178ZM372.077 331.494C373.243 331.494 374.193 330.586 374.193 329.463C374.193 328.34 373.243 327.433 372.077 327.433H367.802C366.636 327.433 365.686 328.34 365.686 329.463C365.686 330.586 366.636 331.494 367.802 331.494H372.077ZM355.019 331.494C356.228 331.494 357.135 330.586 357.135 329.463C357.135 328.34 356.185 327.433 355.019 327.433H350.787C349.578 327.433 348.671 328.34 348.671 329.463C348.671 330.586 349.621 331.494 350.787 331.494H355.019ZM337.918 331.494C339.127 331.494 340.034 330.586 340.034 329.463C340.034 328.34 339.084 327.433 337.918 327.433H333.686C332.477 327.433 331.57 328.34 331.57 329.463C331.57 330.586 332.52 331.494 333.686 331.494H337.918ZM320.86 331.494C322.026 331.494 322.976 330.586 322.976 329.463C322.976 328.34 322.026 327.433 320.86 327.433H316.585C315.419 327.433 314.469 328.34 314.469 329.463C314.469 330.586 315.419 331.494 316.585 331.494H320.86ZM303.846 331.494C305.012 331.494 305.962 330.586 305.962 329.463C305.962 328.34 305.012 327.433 303.846 327.433H299.57C298.405 327.433 297.411 328.34 297.411 329.463C297.411 330.586 298.361 331.494 299.57 331.494H303.846ZM286.745 331.494C287.911 331.494 288.861 330.586 288.861 329.463C288.861 328.34 287.911 327.433 286.745 327.433H284.499H284.37H284.283H284.154H284.024H283.851H283.722H283.592H283.463L283.333 327.39H283.204H283.074L282.945 327.346H282.815H282.729C281.563 327.217 280.483 328.038 280.397 329.161C280.267 330.284 281.174 331.278 282.34 331.407H282.47H282.642L282.772 331.45H282.945H283.074L283.247 331.494H283.376H283.549H283.679L283.851 331.537H283.981H284.154H284.283H284.456H286.745V331.494ZM269.385 326.655C270.335 327.346 271.673 327.174 272.364 326.266C273.099 325.403 272.883 324.107 271.976 323.415L271.933 323.372L271.803 323.286L271.717 323.243L271.587 323.156L271.501 323.113L271.414 323.027L271.285 322.983L271.198 322.897L271.112 322.854L270.983 322.767L270.896 322.681L270.81 322.638L270.723 322.551L270.637 322.465L270.507 322.379L270.421 322.335L270.335 322.249L270.248 322.163L270.162 322.076L270.076 322.033L270.032 321.86L269.946 321.774L269.86 321.687L269.773 321.601L269.687 321.515L269.601 321.428L269.514 321.385L269.428 321.299L269.342 321.212L269.255 321.126L269.169 321.039V320.996C268.348 320.175 267.01 320.089 266.146 320.867C265.282 321.644 265.196 322.897 266.016 323.718L266.06 323.761L266.189 323.891L266.275 324.02L266.405 324.107L266.491 324.236L266.621 324.323L266.707 324.452L266.837 324.539L266.966 324.668L267.053 324.755L267.182 324.841L267.312 324.971L267.441 325.057L267.528 325.187L267.657 325.273L267.787 325.359L267.916 325.446L268.046 325.575L268.176 325.662L268.262 325.748L268.391 325.835L268.521 325.964L268.651 326.05L268.78 326.137L268.91 326.223L269.039 326.31L269.169 326.396L269.298 326.482L269.428 326.569L269.557 326.655H269.385ZM259.755 313.134C259.971 314.214 261.093 314.948 262.259 314.732C263.425 314.516 264.203 313.479 263.987 312.356L263.944 312.313V312.183L263.9 312.054L263.857 311.924L263.814 311.795V311.665L263.771 311.535L263.728 311.406V311.276L263.684 311.147V311.017L263.641 310.887V310.758L263.598 310.628L263.555 310.499V310.369L263.512 310.239V310.11V309.98V309.851L263.468 309.721V309.591V309.462V309.332V309.203L263.425 309.073V308.943V308.814V308.684C263.425 307.561 262.475 306.654 261.309 306.654C260.143 306.654 259.193 307.561 259.193 308.684V308.857V308.987V309.116V309.246V309.419V309.548V309.678L259.236 309.807V309.937V310.11L259.28 310.239V310.369V310.499L259.323 310.628V310.758L259.366 310.931L259.409 311.06V311.19L259.452 311.319V311.449L259.496 311.579L259.539 311.708L259.582 311.838V311.967L259.625 312.097L259.668 312.227L259.711 312.356L259.755 312.529L259.798 312.659V313.134H259.755Z" fill="#0077E4"/>
<path fill-rule="evenodd" clip-rule="evenodd" d="M148.944 357.5L151.449 347.65C147.173 340.047 142.941 339.14 138.752 347.348L141.214 357.327C145.835 375.859 144.28 375.427 148.944 357.5Z" fill="#FBC081"/>
<path fill-rule="evenodd" clip-rule="evenodd" d="M142.337 362.381C145.187 374.52 144.841 374.348 147.778 362.511C147.044 361.388 146.094 360.653 145.057 360.653C144.064 360.61 143.071 361.258 142.337 362.381Z" fill="#4D4D4D"/>
<path fill-rule="evenodd" clip-rule="evenodd" d="M142.812 285.4V291.361L142.682 343.849C142.682 346.527 141.559 348.73 140.264 348.687C138.925 348.644 137.846 346.398 137.846 343.719L137.975 285.314C137.975 285.098 137.975 284.882 138.018 284.622V278.661C138.018 276.328 138.968 274.47 140.134 274.514L142.898 274.6L142.812 285.4Z" fill="#B96F2D"/>
<path fill-rule="evenodd" clip-rule="evenodd" d="M142.164 285.4L142.121 291.361L141.948 343.849C141.948 346.527 143.157 348.774 144.712 348.817C146.223 348.86 147.476 346.7 147.476 343.978L147.605 291.534L147.648 285.573L147.692 274.686L142.207 274.557L142.164 285.4Z" fill="#E4883A"/>
<path fill-rule="evenodd" clip-rule="evenodd" d="M152.528 285.659V287.992L152.356 344.065C152.312 346.743 151.06 348.946 149.505 348.903C147.951 348.86 146.698 346.614 146.742 343.935L146.914 291.491V285.53L146.957 274.687L150.196 274.73C151.405 274.773 152.442 276.328 152.571 278.402L152.528 285.659Z" fill="#F99E3F"/>
<path fill-rule="evenodd" clip-rule="evenodd" d="M141.732 263.714L149.03 263.93C151.017 263.973 152.658 265.658 152.658 267.688L152.614 277.192C152.614 279.179 150.973 280.778 148.944 280.734L141.646 280.518C139.659 280.475 138.018 278.79 138.018 276.76V267.299C138.105 265.226 139.746 263.627 141.732 263.714Z" fill="#F1698D"/>
<path fill-rule="evenodd" clip-rule="evenodd" d="M139.702 274.686L151.189 275.032C152.053 275.075 152.744 275.766 152.744 276.63V279.784C152.744 280.648 152.053 281.296 151.146 281.296L139.702 280.95C138.838 280.907 138.104 280.216 138.104 279.352V276.198C138.104 275.334 138.795 274.643 139.702 274.686Z" fill="#D85E7F"/>
<path d="M248.07 40.1078H221.518V36.2404L232.155 25.7739C235.397 22.5646 237.534 20.2748 238.566 18.9045C239.597 17.5342 240.371 16.2 240.886 14.9018C241.402 13.6037 241.66 12.2063 241.66 10.7098C241.66 8.60033 241.006 6.93255 239.698 5.70651C238.391 4.46243 236.576 3.8404 234.255 3.8404C232.579 3.8404 230.986 4.11085 229.475 4.65175C227.983 5.19265 226.316 6.17529 224.474 7.59966L222.043 4.54357C225.763 1.51452 229.816 0 234.2 0C237.995 0 240.969 0.955592 243.125 2.86678C245.28 4.75993 246.357 7.31118 246.357 10.5205C246.357 13.0267 245.639 15.5058 244.202 17.9579C242.765 20.41 240.076 23.5112 236.134 27.2614L227.292 35.7265V35.9429H248.07V40.1078Z" fill="#0077E4"/>
<path d="M282.36 31.0207H276.364V40.1078H271.971V31.0207H252.325V27.0991L271.501 0.351586H276.364V26.9369H282.36V31.0207ZM271.971 26.9369V13.793C271.971 11.2147 272.063 8.30283 272.247 5.05743H272.026C271.142 6.78831 270.313 8.2217 269.539 9.35759L256.912 26.9369H271.971Z" fill="#0077E4"/>
<path d="M303.718 0.567946L288.659 40.1078H284.073L299.131 0.567946H303.718Z" fill="#0077E4"/>
<path d="M312.173 40.1078L328.917 4.70584H306.895V0.567946H333.78V4.16494L317.257 40.1078H312.173Z" fill="#0077E4"/>
</svg>
