<svg width="35" height="36" viewBox="0 0 35 36" fill="none" xmlns="http://www.w3.org/2000/svg">
<path opacity="0.5" d="M12.22 28C11.0052 28 9.85797 27.4937 8.97286 26.5629C8.04607 25.5881 7.56197 24.311 7.60966 22.9666C7.65895 21.5782 8.25532 20.2445 9.33435 19.1097L11.2771 17.0581C11.5666 16.7523 12.0369 16.7513 12.3276 17.0558C12.6183 17.3603 12.6193 17.8549 12.3298 18.1607L10.386 20.2134C8.81077 21.8701 8.66213 24.0263 10.0234 25.458C11.3848 26.8899 13.4349 26.7335 15.009 25.0779L17.6789 22.2698C18.4882 21.4187 18.9345 20.4469 18.9695 19.4594C19.0017 18.5544 18.6717 17.6903 18.0404 17.0264C17.8289 16.8039 17.5949 16.6152 17.3448 16.4654C16.9883 16.2518 16.864 15.7748 17.067 15.3999C17.2701 15.0249 17.7237 14.8942 18.0801 15.1077C18.4455 15.3266 18.7856 15.6004 19.091 15.9215C20.0178 16.8963 20.5019 18.1734 20.4542 19.5178C20.4049 20.9062 19.8085 22.2399 18.7295 23.3747L16.0595 26.1828C14.9805 27.3177 13.7124 27.9448 12.3923 27.9967C12.3348 27.9989 12.2772 28 12.22 28ZM17.1623 20.6001C17.3654 20.2252 17.2409 19.7482 16.8845 19.5346C16.6344 19.3848 16.4004 19.1961 16.1889 18.9737C14.8276 17.5419 14.9762 15.3857 16.5503 13.7302L19.2203 10.9221C20.7945 9.26662 22.8446 9.11025 24.2059 10.542C25.5672 11.9737 25.4185 14.1299 23.8433 15.7866L21.8995 17.8394C21.61 18.1451 21.6109 18.6398 21.9016 18.9442C22.1923 19.2487 22.6626 19.2476 22.9521 18.9419L24.8949 16.8903C25.974 15.7555 26.5703 14.4217 26.6196 13.0334C26.6673 11.689 26.1832 10.4119 25.2564 9.43712C24.3296 8.46236 23.1146 7.95329 21.8371 8.00337C20.5169 8.05521 19.2488 8.68244 18.1698 9.81728L15.4998 12.6253C14.4208 13.7602 13.8245 15.0939 13.7751 16.4823C13.7275 17.8266 14.2116 19.1038 15.1383 20.0785C15.4437 20.3996 15.7838 20.6734 16.1492 20.8924C16.2652 20.9619 16.3915 20.9949 16.5162 20.9949C16.7744 20.9949 17.0253 20.853 17.1623 20.6001Z" fill="#0077E4"/>
</svg>
