<svg width="36" height="36" viewBox="0 0 36 36" fill="none" xmlns="http://www.w3.org/2000/svg">
<rect width="36" height="36" fill="white"/>
<path d="M27.8996 8.10048C25.2553 5.45622 21.7396 4 18 4C14.2605 4 10.7448 5.45622 8.10048 8.10048C5.45617 10.7447 4 14.2605 4 18C4 21.7396 5.45622 25.2553 8.10048 27.8996C10.7447 30.5439 14.2605 32 18 32C21.7396 32 25.2553 30.5438 27.8996 27.8996C30.5439 25.2553 32 21.7396 32 18C32 14.2605 30.5438 10.7448 27.8996 8.10048ZM27.2808 27.2808C24.8018 29.7598 21.5058 31.125 18 31.125C14.4942 31.125 11.1982 29.7598 8.71921 27.2808C6.24022 24.8018 4.875 21.5058 4.875 18C4.875 14.4942 6.24022 11.1982 8.71921 8.71921C11.1982 6.24022 14.4942 4.875 18 4.875C21.5058 4.875 24.8018 6.24022 27.2808 8.71921C29.7598 11.1982 31.125 14.4942 31.125 18C31.125 21.5058 29.7598 24.8018 27.2808 27.2808Z" fill="#0077E4"/>
<path d="M6.625 18C6.625 11.7278 11.7278 6.625 18 6.625C20.2623 6.625 22.4475 7.28732 24.3194 8.54038C24.5202 8.6748 24.7919 8.62099 24.9264 8.42018C25.0608 8.21942 25.007 7.94767 24.8062 7.81325C22.7898 6.46345 20.4362 5.75 18 5.75C14.7279 5.75 11.6517 7.02422 9.33794 9.33794C7.02422 11.6517 5.75 14.7279 5.75 18C5.75 21.0188 6.85764 23.919 8.86894 26.1664C8.95535 26.263 9.07501 26.3121 9.1951 26.3121C9.29895 26.3121 9.40324 26.2754 9.48669 26.2006C9.66673 26.0395 9.68209 25.7629 9.52093 25.5829C7.65351 23.4961 6.625 20.8031 6.625 18Z" fill="#0077E4"/>
<path d="M28.1868 11.194C28.0524 10.9931 27.7806 10.9393 27.5799 11.0737C27.3791 11.2082 27.3252 11.4799 27.4597 11.6807C28.7127 13.5525 29.375 15.7377 29.375 18C29.375 24.2722 24.2721 29.375 18 29.375C15.3978 29.375 12.8541 28.4738 10.8376 26.8374C10.65 26.6852 10.3744 26.7139 10.2222 26.9015C10.0699 27.0891 10.0986 27.3646 10.2862 27.5169C12.4581 29.2794 15.1976 30.25 18 30.25C21.2721 30.25 24.3483 28.9758 26.662 26.6621C28.9758 24.3483 30.25 21.2721 30.25 18C30.25 15.5638 29.5365 13.2103 28.1868 11.194Z" fill="#0077E4"/>
<path d="M25.5829 9.52103C25.877 9.78424 26.1606 10.0659 26.4258 10.3582C26.5122 10.4533 26.6308 10.5017 26.75 10.5017C26.8548 10.5017 26.9601 10.4642 27.0438 10.3882C27.2227 10.2258 27.2362 9.94907 27.0738 9.77013C26.7883 9.45557 26.483 9.15238 26.1664 8.86899C25.9864 8.70788 25.7097 8.72319 25.5486 8.90323C25.3875 9.08326 25.4028 9.35987 25.5829 9.52103Z" fill="#0077E4"/>
<path d="M18 9.6875C18.2416 9.6875 18.4375 9.49161 18.4375 9.25V7.9375C18.4375 7.69589 18.2416 7.5 18 7.5C17.7584 7.5 17.5625 7.69589 17.5625 7.9375V9.25C17.5625 9.49161 17.7584 9.6875 18 9.6875Z" fill="#0077E4"/>
<path d="M17.5625 26.75V28.0625C17.5625 28.3041 17.7584 28.5 18 28.5C18.2416 28.5 18.4375 28.3041 18.4375 28.0625V26.75C18.4375 26.5084 18.2416 26.3125 18 26.3125C17.7584 26.3125 17.5625 26.5084 17.5625 26.75Z" fill="#0077E4"/>
<path d="M9.6875 18C9.6875 17.7584 9.49161 17.5625 9.25 17.5625H7.9375C7.69589 17.5625 7.5 17.7584 7.5 18C7.5 18.2416 7.69589 18.4375 7.9375 18.4375H9.25C9.49161 18.4375 9.6875 18.2416 9.6875 18Z" fill="#0077E4"/>
<path d="M26.3125 18C26.3125 18.2416 26.5084 18.4375 26.75 18.4375H28.0625C28.3041 18.4375 28.5 18.2416 28.5 18C28.5 17.7584 28.3041 17.5625 28.0625 17.5625H26.75C26.5084 17.5625 26.3125 17.7584 26.3125 18Z" fill="#0077E4"/>
<path d="M14.0039 10.2035L13.3476 9.06682C13.2268 8.85753 12.9592 8.78594 12.75 8.90669C12.5408 9.0275 12.4691 9.29508 12.5899 9.50432L13.2461 10.641C13.3272 10.7813 13.4742 10.8598 13.6254 10.8598C13.6996 10.8598 13.7749 10.8409 13.8438 10.8011C14.053 10.6803 14.1247 10.4127 14.0039 10.2035Z" fill="#0077E4"/>
<path d="M22.7539 25.359C22.6331 25.1498 22.3654 25.0782 22.1562 25.1989C21.947 25.3197 21.8753 25.5873 21.9961 25.7965L22.6524 26.9332C22.7334 27.0735 22.8805 27.152 23.0317 27.152C23.1059 27.152 23.1812 27.1331 23.2501 27.0933C23.4593 26.9725 23.531 26.7049 23.4102 26.4957L22.7539 25.359Z" fill="#0077E4"/>
<path d="M9.28602 23.4688C9.36023 23.4688 9.43549 23.4499 9.50439 23.4101L10.6411 22.7539C10.8503 22.6331 10.922 22.3655 10.8012 22.1563C10.6804 21.947 10.4128 21.8754 10.2036 21.9961L9.06689 22.6524C8.85766 22.7732 8.78596 23.0408 8.90677 23.25C8.98776 23.3903 9.13481 23.4688 9.28602 23.4688Z" fill="#0077E4"/>
<path d="M25.5781 14.0626C25.6524 14.0626 25.7276 14.0436 25.7965 14.0039L26.9332 13.3476C27.1424 13.2268 27.2141 12.9592 27.0933 12.75C26.9725 12.5408 26.7049 12.4692 26.4957 12.5899L25.359 13.2461C25.1498 13.3669 25.0781 13.6345 25.1989 13.8438C25.2799 13.9841 25.427 14.0626 25.5781 14.0626Z" fill="#0077E4"/>
<path d="M23.25 8.90674C23.0408 8.78588 22.7732 8.85758 22.6524 9.06687L21.9961 10.2035C21.8753 10.4128 21.947 10.6804 22.1562 10.8012C22.2252 10.841 22.3004 10.8599 22.3746 10.8599C22.5258 10.8599 22.6729 10.7814 22.7539 10.641L23.4102 9.50437C23.5309 9.29513 23.4592 9.02755 23.25 8.90674Z" fill="#0077E4"/>
<path d="M13.8437 25.1989C13.6345 25.0781 13.3669 25.1498 13.2461 25.359L12.5899 26.4957C12.4691 26.7049 12.5408 26.9725 12.75 27.0933C12.8189 27.1331 12.8941 27.152 12.9684 27.152C13.1196 27.152 13.2666 27.0735 13.3477 26.9332L14.0039 25.7965C14.1247 25.5873 14.053 25.3197 13.8437 25.1989Z" fill="#0077E4"/>
<path d="M25.359 22.7539L26.4957 23.4102C26.5646 23.45 26.6398 23.4688 26.714 23.4688C26.8653 23.4688 27.0123 23.3904 27.0934 23.25C27.2142 23.0408 27.1425 22.7732 26.9332 22.6524L25.7965 21.9961C25.5873 21.8753 25.3197 21.947 25.1989 22.1563C25.0781 22.3655 25.1498 22.6331 25.359 22.7539Z" fill="#0077E4"/>
<path d="M10.641 13.2461L9.50433 12.5898C9.2951 12.469 9.02751 12.5407 8.9067 12.75C8.7859 12.9592 8.8576 13.2268 9.06683 13.3476L10.2035 14.0038C10.2724 14.0436 10.3476 14.0625 10.4219 14.0625C10.5731 14.0625 10.7201 13.984 10.8012 13.8437C10.9219 13.6345 10.8502 13.3669 10.641 13.2461Z" fill="#0077E4"/>
<path d="M21.0457 23.7122C21.1199 23.7122 21.1952 23.6933 21.2641 23.6535C21.4733 23.5327 21.545 23.2651 21.4242 23.0559L18.9972 18.8521C19.1936 18.6226 19.3126 18.325 19.3126 18C19.3126 17.4297 18.9468 16.9433 18.4376 16.7628V11C18.4376 10.7584 18.2417 10.5625 18.0001 10.5625C17.7585 10.5625 17.5626 10.7584 17.5626 11V16.7628C17.0534 16.9433 16.6876 17.4297 16.6876 18C16.6876 18.7237 17.2763 19.3125 18.0001 19.3125C18.0819 19.3125 18.162 19.3046 18.2398 19.2902L20.6665 23.4934C20.7475 23.6337 20.8946 23.7122 21.0457 23.7122ZM17.5626 18C17.5626 17.7588 17.7588 17.5625 18.0001 17.5625C18.2413 17.5625 18.4376 17.7588 18.4376 18C18.4376 18.2412 18.2413 18.4375 18.0001 18.4375C17.7588 18.4375 17.5626 18.2412 17.5626 18Z" fill="#0077E4"/>
</svg>
