<svg width="35" height="35" viewBox="0 0 35 35" fill="none" xmlns="http://www.w3.org/2000/svg">
<g clip-path="url(#clip0)">
<path d="M29.0449 23.9363V21.0192C29.0449 20.7355 28.8149 20.5055 28.5312 20.5055C28.2475 20.5055 28.0174 20.7355 28.0174 21.0192V23.9363C25.2004 24.1965 22.9869 26.572 22.9869 29.4559C22.9869 31.3176 23.9103 32.9667 25.3221 33.9726H20.3745C19.0754 33.9726 17.8545 33.3993 17.0249 32.3997C16.1951 31.4001 15.8565 30.0944 16.0958 28.8175L17.0661 23.6407H22.4798C23.5184 23.6407 24.3634 22.7957 24.3634 21.7571V14.9613C25.058 14.7971 25.7801 14.71 26.5195 14.71C27.3455 14.71 28.0175 15.3821 28.0175 16.2081V18.9645C28.0175 19.2482 28.2475 19.4782 28.5312 19.4782C28.8149 19.4782 29.045 19.2482 29.045 18.9645V16.208C29.045 15.1791 28.4261 14.2925 27.5413 13.8993V11.1745C27.5413 10.8908 27.3112 10.6608 27.0275 10.6608H27.0197V3.75724C27.0197 1.68547 25.3342 0 23.2625 0C21.7823 0 20.4357 0.873291 19.8319 2.22496L16.9116 8.76292C16.7958 9.02193 16.9121 9.32572 17.1711 9.44146C17.4302 9.55732 17.7339 9.44098 17.8496 9.18196L20.7699 2.644C21.2086 1.66195 22.187 1.02744 23.2624 1.02744C24.7677 1.02744 25.9923 2.25203 25.9923 3.75724V10.6608H24.9649V3.75724C24.9649 2.81853 24.2011 2.05481 23.2624 2.05481C22.5918 2.05481 21.9817 2.45048 21.708 3.06298L9.97679 29.3263H8.8516L17.0114 11.0585C17.1271 10.7995 17.0109 10.4957 16.7518 10.38C16.4927 10.264 16.189 10.3804 16.0733 10.6395L7.7264 29.3263H7.44941C6.78851 29.3263 6.2508 29.864 6.2508 30.5249V31.5986H4.5075C2.82941 31.5986 1.3629 32.7329 0.94112 34.3571C0.90113 34.511 0.934763 34.6747 1.03197 34.8005C1.12924 34.9262 1.27929 34.9999 1.4383 34.9999H9.51687C9.80056 34.9999 10.0306 34.77 10.0306 34.4862C10.0306 34.2025 9.80056 33.9725 9.51687 33.9725H2.19572C2.65892 33.1555 3.53385 32.6259 4.5075 32.6259H13.2172C13.9521 32.6259 14.5945 33.1227 14.7792 33.8341L14.8151 33.9725H11.5718C11.2881 33.9725 11.058 34.2025 11.058 34.4862C11.058 34.7699 11.2881 34.9999 11.5718 34.9999H15.4792C15.6382 34.9999 15.7883 34.9263 15.8856 34.8005C15.9828 34.6747 16.0164 34.511 15.9764 34.3571L15.7735 33.5759C15.4712 32.4116 14.42 31.5985 13.2171 31.5985H12.0854V30.5249C12.0854 29.9345 11.656 29.4437 11.0934 29.3453L22.646 3.48195C22.7545 3.23907 22.9965 3.08219 23.2624 3.08219C23.6347 3.08219 23.9374 3.38502 23.9374 3.75724V10.6608H23.8496C23.5659 10.6608 23.3359 10.8908 23.3359 11.1746V14.1815C19.7827 15.3254 17.0147 18.3371 16.2969 22.1672L15.086 28.6283C14.7902 30.2065 15.2087 31.8203 16.2342 33.0559C17.2598 34.2914 18.7688 35 20.3745 35H28.5312C31.5883 35 34.0754 32.5129 34.0754 29.4558C34.0754 26.572 31.8619 24.1965 29.0449 23.9363ZM7.2781 31.5986V30.525C7.2781 30.4306 7.35494 30.3538 7.44934 30.3538H10.8868C10.9812 30.3538 11.058 30.4306 11.058 30.525V31.5986H7.2781ZM24.3634 11.6882H26.5138V13.6827C25.779 13.6831 25.0594 13.761 24.3634 13.9084V11.6882ZM23.3359 15.2671V21.757C23.3359 22.2291 22.9519 22.6131 22.4797 22.6131H17.2586L17.3067 22.3564C17.9324 19.0185 20.2858 16.3705 23.3359 15.2671ZM28.5312 33.9726C26.0406 33.9726 24.0144 31.9464 24.0144 29.4559C24.0144 26.9653 26.0406 24.9391 28.5312 24.9391C31.0217 24.9391 33.0479 26.9653 33.0479 29.4559C33.0479 31.9464 31.0217 33.9726 28.5312 33.9726Z" fill="#0077E4"/>
<path d="M28.5311 27.1484C27.2588 27.1484 26.2238 28.1835 26.2238 29.4558C26.2238 30.7281 27.2589 31.7631 28.5311 31.7631C29.8034 31.7631 30.8385 30.728 30.8385 29.4558C30.8385 28.1835 29.8034 27.1484 28.5311 27.1484ZM28.5311 30.7357C27.8254 30.7357 27.2512 30.1615 27.2512 29.4558C27.2512 28.75 27.8254 28.1758 28.5311 28.1758C29.2369 28.1758 29.8111 28.75 29.8111 29.4558C29.8111 30.1616 29.2369 30.7357 28.5311 30.7357Z" fill="#0077E4"/>
</g>
<defs>
<clipPath id="clip0">
<rect width="35" height="35" fill="white"/>
</clipPath>
</defs>
</svg>
