<svg width="31" height="31" viewBox="0 0 31 31" fill="none" xmlns="http://www.w3.org/2000/svg">
<g clip-path="url(#clip0)">
<path d="M28.3551 8.48869C28.6058 8.48869 28.8091 8.28545 28.8091 8.03462V2.95979C28.8091 1.32775 27.4813 0 25.8493 0H5.15062C3.51864 0 2.19089 1.32775 2.19089 2.95979V28.0401C2.19089 29.6722 3.51864 31 5.15068 31H25.8494C27.4814 31 28.8092 29.6722 28.8092 28.0401V9.96968C28.8092 9.71885 28.6059 9.51561 28.3551 9.51561C28.1044 9.51561 27.9011 9.71885 27.9011 9.96968V23.1172H23.8627C23.6119 23.1172 23.4086 23.3204 23.4086 23.5712C23.4086 23.822 23.6119 24.0253 23.8627 24.0253H27.9011V28.0194H3.09902V24.0253H7.13743C7.3882 24.0253 7.5915 23.822 7.5915 23.5712C7.5915 23.3204 7.3882 23.1172 7.13743 23.1172H3.09902V6.64203H5.35216C5.60293 6.64203 5.80623 6.43879 5.80623 6.18796C5.80623 5.93714 5.60293 5.7339 5.35216 5.7339H3.09902V2.95979C3.09902 1.8285 4.01938 0.908134 5.15062 0.908134H25.8493C26.9806 0.908134 27.901 1.8285 27.901 2.95979V5.7339H7.28721C7.03645 5.7339 6.83315 5.93714 6.83315 6.18796C6.83315 6.43879 7.03645 6.64203 7.28721 6.64203H27.9009V8.03462C27.901 8.28545 28.1042 8.48869 28.3551 8.48869ZM25.8493 30.0919H5.15062C4.33699 30.0919 3.63246 29.6158 3.30099 28.9275H27.699C27.3675 29.6158 26.663 30.0919 25.8493 30.0919Z" fill="#0077E4"/>
<path d="M17.0156 3.36553C17.0156 2.51315 16.3221 1.8197 15.4697 1.8197C14.6174 1.8197 13.9239 2.51315 13.9239 3.36553C13.9239 4.2179 14.6174 4.91135 15.4697 4.91135C16.3221 4.91135 17.0156 4.2179 17.0156 3.36553ZM14.832 3.36553C14.832 3.0139 15.1181 2.72784 15.4697 2.72784C15.8213 2.72784 16.1074 3.01396 16.1074 3.36553C16.1074 3.7171 15.8213 4.00322 15.4697 4.00322C15.1181 4.00322 14.832 3.7171 14.832 3.36553Z" fill="#0077E4"/>
<path d="M12.7965 3.36553C12.7965 2.51315 12.103 1.8197 11.2507 1.8197C10.3983 1.8197 9.70483 2.51315 9.70483 3.36553C9.70483 4.2179 10.3983 4.91135 11.2507 4.91135C12.103 4.91135 12.7965 4.2179 12.7965 3.36553ZM10.6129 3.36553C10.6129 3.0139 10.899 2.72784 11.2506 2.72784C11.6022 2.72784 11.8883 3.01396 11.8883 3.36553C11.8883 3.7171 11.6022 4.00322 11.2506 4.00322C10.899 4.00322 10.6129 3.7171 10.6129 3.36553Z" fill="#0077E4"/>
<path d="M8.57743 3.36553C8.57743 2.51315 7.88398 1.8197 7.0316 1.8197C6.17923 1.8197 5.48572 2.51315 5.48572 3.36553C5.48572 4.2179 6.17917 4.91135 7.03154 4.91135C7.88392 4.91135 8.57743 4.2179 8.57743 3.36553ZM6.39385 3.36553C6.39385 3.0139 6.67991 2.72784 7.03154 2.72784C7.38317 2.72784 7.66924 3.01396 7.66924 3.36553C7.66924 3.7171 7.38317 4.00322 7.03154 4.00322C6.67991 4.00322 6.39385 3.7171 6.39385 3.36553Z" fill="#0077E4"/>
<path d="M21.2346 3.36553C21.2346 2.51315 20.5412 1.8197 19.6888 1.8197C18.8364 1.8197 18.143 2.51315 18.143 3.36553C18.143 4.2179 18.8364 4.91135 19.6888 4.91135C20.5412 4.91135 21.2346 4.2179 21.2346 3.36553ZM19.051 3.36553C19.051 3.0139 19.3371 2.72784 19.6887 2.72784C20.0404 2.72784 20.3264 3.01396 20.3264 3.36553C20.3264 3.7171 20.0404 4.00322 19.6887 4.00322C19.3371 4.00322 19.051 3.7171 19.051 3.36553Z" fill="#0077E4"/>
<path d="M25.4537 3.36553C25.4537 2.51315 24.7603 1.8197 23.9079 1.8197C23.0555 1.8197 22.3621 2.51315 22.3621 3.36553C22.3621 4.2179 23.0555 4.91135 23.9079 4.91135C24.7603 4.91135 25.4537 4.2179 25.4537 3.36553ZM23.2701 3.36553C23.2701 3.0139 23.5562 2.72784 23.9078 2.72784C24.2595 2.72784 24.5455 3.01396 24.5455 3.36553C24.5455 3.7171 24.2595 4.00322 23.9078 4.00322C23.5562 4.00322 23.2701 3.7171 23.2701 3.36553Z" fill="#0077E4"/>
<path d="M6.70987 17.659C6.46068 17.6873 6.28159 17.9122 6.30987 18.1613C6.83804 22.8191 10.7759 26.3315 15.4697 26.3315C20.5534 26.3315 24.6893 22.1956 24.6893 17.1118C24.6893 12.0281 20.5534 7.89215 15.4697 7.89215C13.1791 7.89215 10.9829 8.73799 9.28582 10.2738C7.60105 11.7985 6.54156 13.8772 6.30254 16.1272C6.27602 16.3765 6.45668 16.6002 6.70611 16.6266C6.95519 16.653 7.17913 16.4724 7.20559 16.2231C7.42106 14.1955 8.37623 12.3218 9.89518 10.9471C11.425 9.56269 13.4047 8.80029 15.4697 8.80029C20.0527 8.80029 23.7812 12.5288 23.7812 17.1118C23.7812 21.6948 20.0527 25.4233 15.4697 25.4233C11.2382 25.4233 7.68835 22.2574 7.21225 18.059C7.18397 17.8098 6.95894 17.6309 6.70987 17.659Z" fill="#0077E4"/>
<path d="M15.1832 9.71392C11.3459 9.85964 8.22234 12.9794 8.07214 16.8164C7.99264 18.848 8.72515 20.7742 10.1348 22.2402C11.5456 23.7072 13.4402 24.5151 15.4697 24.5151C18.168 24.5151 20.655 23.0419 21.9602 20.6703C22.0737 20.4639 22.0886 20.2199 22.0009 20.001C21.9132 19.7821 21.7339 19.616 21.5089 19.5451L20.9428 19.3668C20.8229 19.329 20.7424 19.2192 20.7424 19.0936V15.1298C20.7424 15.0042 20.8229 14.8945 20.9428 14.8567L21.5089 14.6784C21.7337 14.6076 21.9129 14.4415 22.0007 14.2227C22.0885 14.0035 22.0736 13.759 21.9596 13.5522C20.5972 11.0776 18.0008 9.60676 15.1832 9.71392ZM21.0895 20.3651C19.9255 22.3688 17.7861 23.607 15.4697 23.607C13.6895 23.607 12.0273 22.8981 10.7893 21.6107C9.81212 20.5944 9.20615 19.3261 9.02907 17.9593L11.8379 16.8003C13.0249 16.3106 14.3387 16.2945 15.5372 16.7551L16.4259 17.0966C17.51 17.5133 18.7039 17.5982 19.8342 17.3464V19.0937C19.8342 19.6176 20.17 20.0755 20.6698 20.233H20.6699L21.0895 20.3651ZM20.6699 13.9906C20.1701 14.1482 19.8343 14.606 19.8343 15.1299V16.4118C18.8202 16.6821 17.7329 16.626 16.7517 16.2488L15.8631 15.9073C14.4468 15.3631 12.8943 15.382 11.4916 15.9608L8.97567 16.999C8.97652 16.95 8.97767 16.901 8.97961 16.8519C9.11134 13.486 11.8514 10.7492 15.2177 10.6213C15.3022 10.6181 15.3861 10.6165 15.4701 10.6165C17.7939 10.6165 19.9177 11.8391 21.0896 13.8585L20.6699 13.9906Z" fill="#0077E4"/>
<path d="M21.7639 15.8475V18.4377C21.7639 18.6885 21.9672 18.8917 22.2179 18.8917C22.4687 18.8917 22.672 18.6885 22.672 18.4377V15.8475C22.672 15.5967 22.4687 15.3934 22.2179 15.3934C21.9672 15.3934 21.7639 15.5967 21.7639 15.8475Z" fill="#0077E4"/>
<path d="M26.8629 9.60386V8.4004C26.8629 7.9424 26.4902 7.5697 26.0322 7.5697H23.9671C23.5091 7.5697 23.1364 7.94234 23.1364 8.4004V9.60386C23.1364 10.0619 23.5091 10.4346 23.9671 10.4346H26.0322C26.4902 10.4346 26.8629 10.0619 26.8629 9.60386ZM25.9547 9.52643H24.0445V8.4779H25.9547V9.52643Z" fill="#0077E4"/>
</g>
<defs>
<clipPath id="clip0">
<rect width="31" height="31" fill="white"/>
</clipPath>
</defs>
</svg>
